<svg width="270" height="260" viewBox="0 0 270 260" fill="none" xmlns="http://www.w3.org/2000/svg">
<g clip-path="url(#clip0_38_163)">
<path d="M110.126 104.958L109.404 88.6707L101.63 96.4254V100.173L108.665 117.999C108.665 117.999 93.8026 126.743 93.7842 128.698C91.7003 130.595 88.5257 135.55 87.4145 139.503C78.4587 143.044 75.677 145.279 75.677 145.279C72.2294 140.989 66.907 135.27 64.2637 129.022C61.0571 121.446 60.0457 112.877 59.4011 109.704C58.4458 104.999 58.4032 106.178 57.4421 94.5575C56.6813 85.3598 86.4389 53.8617 90.6386 48.5593C94.7937 43.3124 103.024 23.5411 107.496 19.3871C110.362 16.7248 145.573 16.5712 147.842 16.542C150.402 16.5089 214.18 10.207 215.576 7.72839C220.31 6.42054 223.739 5.18077 228.473 3.8807C231.683 2.99973 234.301 1.85914 238.394 1.01123H270C269.971 3.80194 270.004 58.5252 270.004 58.5252L237.032 80.5251L223.202 96.4137L213.648 104.172L203.64 109.572L191.398 113.614L191.178 116.747L189.606 119.543L187.464 121.011L176.122 121.075L155.574 134.163C155.574 134.163 143.962 141.415 135.036 146.193C132.189 147.13 124.855 147.277 124.855 147.277L122.611 152.492C122.611 152.492 115.013 157.305 113.658 157.546C111.39 157.948 106.532 152.069 106.532 152.069C106.532 152.069 97.1495 153.813 94.8266 152.455C91.1225 151.458 88.1637 148.161 87.5258 144.602C86.5415 139.113 88.5547 133.966 92.1465 130.018C96.8979 124.798 103.334 121.792 109.305 117.67C112.895 115.47 121.069 113.274 121.069 113.274L122.53 112.271" fill="url(#paint0_linear_38_163)"/>
<path d="M124.103 150.883C122.95 150.629 121.833 149.99 122.187 148.769C122.529 147.59 123.915 147.441 124.824 147.259C124.708 148.193 124.592 149.982 124.108 150.876L124.103 150.883Z" fill="#B28376"/>
<path d="M125.883 84.4759C123.053 82.9804 120.081 81.6871 118.109 78.9703C118.975 78.9508 119.874 79.0014 119.335 77.6342C119.105 77.0498 118.9 76.2846 119.618 75.9404C120.317 75.603 120.792 76.3478 121.236 76.7202C123.666 78.7564 124.508 81.7834 125.882 84.4759H125.883Z" fill="#B28376"/>
<path d="M132.658 109.703C131.482 108.399 132.086 107.106 133.139 106.372C135.106 105.001 136.993 103.216 139.724 103.583C138.204 106.607 135.794 108.581 132.658 109.709V109.703Z" fill="#B28376"/>
<path d="M121.373 113.535C122.106 112.478 122.469 113.163 123.017 112.979C123.411 113.012 123.805 113.045 124.199 113.08C123.444 114.432 122.641 115.434 121.373 113.537V113.535Z" fill="#B28376"/>
<path d="M91.1183 150.903C91.1183 150.903 87.4888 156.494 83.8592 154.306C80.2296 152.118 73.9384 143.61 71.7606 140.45C69.5829 137.29 65.9533 132.185 64.2595 129.024C62.5657 125.864 60.388 114.682 59.1781 108.605C57.9683 102.527 57.2424 97.4222 57.4844 92.8035C57.7263 88.1847 65.2274 78.704 67.8891 75.3007C70.5508 71.8974 78.5358 62.1737 81.1975 59.2566C83.8592 56.3394 89.6665 49.7759 91.1183 48.0743C92.5702 46.3726 96.1997 38.8367 97.8935 35.6765C99.5873 32.5163 103.608 21.8202 107.526 19.6324C111.444 17.4445 116.767 16.9583 131.286 16.9583C145.804 16.9583 157.176 15.2567 165.887 15.0136C174.598 14.7705 195.408 11.3672 200.489 10.6379C205.571 9.90862 222.025 5.73714 224.444 5.14788C226.864 4.56057 238.237 0.456177 238.237 0.456177" stroke="#40220F" stroke-width="0.5" stroke-miterlimit="10"/>
<path d="M269.439 58.5281C269.439 58.5281 258.56 65.5778 253.721 68.9811C248.881 72.3844 239.203 78.4617 236.299 81.3789C233.395 84.296 224.2 96.1181 219.361 100.174C214.522 104.23 202.665 110.793 195.89 112.495C189.115 114.196 185.485 114.926 181.855 117.114C178.226 119.301 174.596 122.948 168.547 126.108C162.498 129.268 156.206 133.887 152.819 135.832C149.431 137.777 139.752 144.34 136.123 145.799C132.493 147.257 125.234 147.257 123.298 147.257C121.363 147.257 113.862 147.257 113.862 147.257C113.862 147.257 111.228 148.473 107.524 146.285C103.82 144.097 101.521 138.749 99.1013 138.02C96.6816 137.29 93.052 138.02 91.6002 140.451C90.1484 142.881 89.9064 147.5 93.536 149.931C97.1656 152.362 99.142 153.372 99.142 153.372C99.142 153.372 87.9707 152.362 87.4867 144.583C87.0028 136.804 88.9385 131.942 96.4396 126.351C103.941 120.76 110.474 116.384 114.345 115.412C118.217 114.44 122.573 112.252 122.573 112.252" stroke="#40220F" stroke-width="0.5" stroke-miterlimit="10" stroke-linecap="round" stroke-linejoin="round"/>
<path d="M99.1401 153.372C99.1401 153.372 103.153 153.758 107.522 151.633C109.507 150.666 116.037 147.257 116.037 147.257" stroke="#40220F" stroke-width="0.5" stroke-miterlimit="10"/>
<path d="M176.184 121.188C176.184 121.188 183.304 121.129 185.966 121.188C188.628 121.247 189.596 119.545 189.596 119.545V118.572C189.596 118.572 186.208 119.973 184.514 119.881C182.82 119.79 179.675 118.572 179.675 118.572" stroke="#40220F" stroke-width="0.5" stroke-miterlimit="10"/>
<path d="M189.599 118.571C189.599 118.571 192.213 116.439 191.392 113.615" stroke="#40220F" stroke-width="0.5" stroke-miterlimit="10"/>
<path d="M119.669 116.092C119.669 116.092 120.395 113.708 122.573 112.25C124.75 110.791 125.718 111.034 126.928 110.791C128.138 110.548 129.832 110.791 129.832 110.791" stroke="#40220F" stroke-width="0.5" stroke-miterlimit="10"/>
<path d="M125.718 116.092C125.718 116.092 127.412 112.979 129.832 110.791C132.251 108.603 135.881 106.902 137.091 106.051C138.301 105.2 140.478 102.194 141.688 100.172C142.898 98.1504 145.56 88.6698 145.56 88.6698" stroke="#40220F" stroke-width="0.5" stroke-miterlimit="10"/>
<path d="M140.246 102.381C140.246 102.381 138.544 95.4763 137.093 91.8299C135.641 88.1835 129.833 81.1338 129.833 81.1338" stroke="#40220F" stroke-width="0.5" stroke-miterlimit="10"/>
<path d="M138.63 96.4263C138.63 96.4263 128.387 87.6993 124.757 83.0805C121.128 78.4617 117.498 68.9811 117.498 68.9811" stroke="#40220F" stroke-width="0.5" stroke-miterlimit="10"/>
<path d="M124.751 83.0805C124.751 83.0805 120.637 82.8374 116.04 76.0308C111.442 69.2242 109.506 67.2794 109.506 67.2794" stroke="#40220F" stroke-width="0.5" stroke-miterlimit="10"/>
<path d="M119.669 81.1357C119.669 81.1357 115.797 83.5667 111.442 84.539C107.086 85.5114 105.392 85.7545 103.457 84.539C101.521 83.3236 97.6494 79.4341 97.6494 79.4341" stroke="#40220F" stroke-width="0.5" stroke-miterlimit="10"/>
<path d="M101.56 83.0806C101.56 83.0806 102.005 84.7822 100.553 87.4562C99.1012 90.1303 97.1655 93.2409 92.568 96.4264C87.9706 99.6119 86.7607 100.583 83.8571 101.313C80.9534 102.042 74.1782 100.174 74.1782 100.174" stroke="#40220F" stroke-width="0.5" stroke-miterlimit="10"/>
<path d="M85.7952 100.174C85.7952 100.174 87.3486 105.202 87.4193 108.119C87.4899 111.036 88.4568 117.784 85.7952 119.881C83.1335 121.977 82.8915 122.462 80.9557 123.191C79.02 123.92 72.9707 125.379 72.9707 125.379" stroke="#40220F" stroke-width="0.5" stroke-miterlimit="10"/>
<path d="M86.8018 118.571C86.8018 118.571 88.4559 120.516 89.4238 122.947C90.3916 125.378 91.6954 130.595 91.6954 130.595" stroke="#40220F" stroke-width="0.5" stroke-miterlimit="10"/>
<path d="M110.571 84.7325C110.571 84.7325 108.301 89.8142 106.123 92.2821C103.945 94.7499 103.668 95.1865 101.628 96.4273C99.5891 97.668 93.7827 97.424 93.7827 97.424" stroke="#40220F" stroke-width="0.5" stroke-miterlimit="10"/>
<path d="M101.628 96.4264C101.628 96.4264 102.94 99.2803 101.628 100.174C100.315 101.068 97.4114 101.408 95.4757 101.482C93.5399 101.556 90.6362 101.482 90.6362 101.482" stroke="#40220F" stroke-width="0.5" stroke-miterlimit="10"/>
<path d="M101.627 100.174C101.627 100.174 105.396 110.383 106.606 112.776C107.816 115.169 108.663 118 108.663 118" stroke="#40220F" stroke-width="0.5" stroke-miterlimit="10"/>
<path d="M109.506 88.6716C109.506 88.6716 109.264 99.3201 109.506 102.383C109.748 105.446 111.2 107.384 114.829 109.089C118.459 110.793 122.572 112.253 122.572 112.253" stroke="#40220F" stroke-width="0.5" stroke-miterlimit="10"/>
<path d="M120.637 98.9682C120.637 98.9682 127.896 97.6146 129.832 96.4245C131.767 95.2343 135.038 93.2837 135.038 93.2837" stroke="#40220F" stroke-width="0.5" stroke-miterlimit="10"/>
<path d="M124.75 147.256C124.75 147.256 124.024 152.891 119.669 154.813C115.314 156.736 114.213 157.881 111.701 156.666C109.19 155.45 106.494 152.049 106.494 152.049" stroke="#40220F" stroke-width="0.5" stroke-miterlimit="10"/>
<path d="M181.101 117.589C181.101 117.589 185.087 114.814 186.539 113.613C187.991 112.411 191.539 107.063 192.346 104.956" stroke="#40220F" stroke-width="0.5" stroke-miterlimit="10" stroke-linecap="round" stroke-linejoin="round"/>
<path d="M189.599 114.079C189.599 114.079 193.47 111.762 195.569 109.169C197.665 106.577 198.794 103.174 198.794 103.174" stroke="#40220F" stroke-width="0.5" stroke-miterlimit="10" stroke-linecap="round" stroke-linejoin="round"/>
<path d="M195.193 112.669C195.193 112.669 198.314 110.84 200.734 108.629C203.154 106.419 203.638 104.96 203.638 104.96" stroke="#40220F" stroke-width="0.5" stroke-miterlimit="10" stroke-linecap="round" stroke-linejoin="round"/>
<path d="M155.026 195.068C156.73 198.462 155.372 202.603 151.993 204.315L44.5776 258.729C41.1987 260.442 37.0775 259.076 35.374 255.682L3.33315 191.855C1.62871 188.461 2.98762 184.321 6.3665 182.608L77.4885 146.574C77.4885 146.574 85.1465 156.463 87.6155 155.779C90.0846 155.095 93.2215 152.076 93.2215 152.076C93.2215 152.076 97.4066 153.974 101.076 154.342C102.112 154.444 104.985 153.985 108.573 153.269C108.573 153.269 113.142 158.507 114.828 158.138C117.057 157.65 120.385 156.294 122.571 155.783C124.97 155.225 125.884 149.171 126.503 147.36L131.153 147.145L155.031 195.054L155.026 195.068Z" fill="#183849"/>
<path opacity="0.9208" d="M153.09 194.095L129.623 147.265L116.043 147.531C116.043 147.531 107.997 151.725 106.394 152.393C104.791 153.061 100.807 153.743 99.7695 153.638C96.0993 153.27 94.7907 152.921 92.9333 151.936C85.4255 147.958 87.1802 141.965 87.126 144.752C87.0447 148.968 87.126 139.163 87.126 139.163L70.883 147.974L63.3016 151.814L4.43388 181.646C1.055 183.36 -0.303911 187.499 1.40053 190.893L33.4414 254.722C35.5504 258.509 38.4705 260.008 42.645 257.769L150.061 203.351C153.439 201.639 154.794 197.497 153.09 194.103V194.095Z" fill="white"/>
<path opacity="0.9208" d="M153.09 194.095L129.623 147.265L116.043 147.531C116.043 147.531 107.997 151.725 106.394 152.393C104.791 153.061 100.807 153.743 99.7695 153.638C96.3393 153.17 95.0365 152.792 92.9333 151.936C87.6361 149.07 87.3032 145.663 87.2732 144.342C87.2431 143.021 87.3032 139.632 87.3032 139.632L70.883 147.973L63.3016 151.813L4.43388 181.635C1.055 183.349 -0.303911 187.488 1.40053 190.883L33.4414 254.711C35.3888 258.729 38.7686 259.997 42.645 257.759L150.061 203.34C153.439 201.628 154.794 197.486 153.09 194.093V194.095Z" fill="url(#paint1_linear_38_163)"/>
<g opacity="0.2">
<path d="M96.8175 192.433L95.9977 192.302C95.7567 192.068 95.2728 191.596 94.5943 191.755C93.9178 191.914 93.5345 191.393 93.3438 191.132C93.2732 190.99 93.1328 190.702 92.3856 190.718C91.6365 190.735 91.7526 189.432 91.2261 189.516C90.6995 189.598 88.5828 187.984 88.5237 187.479C88.4647 186.973 88.1618 187.125 88.0911 186.981C88.0204 186.839 88.0137 187.08 88.0098 187.202L87.0284 187.509L84.6909 188.137L83.454 189.461L79.4808 189.833L78.089 188.921C77.8064 189.093 77.5276 189.243 77.2469 189.399C76.974 189.553 76.6991 189.712 76.4184 189.894C76.4145 189.898 76.4126 189.899 76.4087 189.902C75.8154 190.288 75.194 190.787 74.4914 191.596L73.0666 191.772C72.4278 193.041 72.4404 194.151 72.5091 195.249C71.7619 196.724 71.4454 198.329 71.2402 199.969L72.2478 201.244L72.5159 202.178C73.1102 203.234 74.0413 203.548 75.0092 203.787L77.9767 204.446L80.3258 203.458C80.6006 202.913 81.1136 201.902 82.3409 201.885C82.4096 201.884 82.4832 201.888 82.5567 201.895C82.5887 201.897 82.6187 201.897 82.6506 201.903C82.7581 201.915 82.8713 201.931 82.9884 201.96C84.6958 202.357 83.8527 200.643 84.7896 201.777C85.7246 202.914 85.4217 203.062 85.2697 203.138C85.6327 203.491 86.3576 204.199 87.4688 204.537C88.5779 204.874 88.9419 205.226 88.9196 205.951C88.8964 206.67 88.5809 207.185 88.9322 207.898C89.2835 208.612 89.5778 208.824 90.2311 209.387C90.8863 209.95 90.7344 210.024 91.53 210.876C92.3275 211.726 93.1328 212.213 93.7881 212.775C94.4433 213.341 94.1984 213.996 94.9476 213.979C95.6948 213.962 96.8263 213.579 97.3663 213.134C97.9016 212.691 99.0814 210.86 99.1269 209.417C99.1724 207.97 98.8772 207.88 98.7272 207.837C98.9885 207.471 99.5102 206.738 98.5733 205.601C97.6373 204.465 99.156 203.714 99.4608 203.561C99.7638 203.411 99.8906 201.747 99.0853 201.26C98.2771 200.77 96.7198 197.988 98.1919 196.37C98.2519 196.302 98.3081 196.231 98.3623 196.16L98.3603 196.156C99.6031 194.48 99.0156 191.5 99.0272 191.152C99.0272 190.812 97.5464 191.901 96.8011 192.445L96.8175 192.433Z" fill="#6A3906"/>
<path d="M69.0857 213.387L69.0799 213.376C69.0499 213.371 69.0131 213.371 68.9802 213.368C68.9541 213.365 68.9299 213.361 68.9038 213.361C68.8041 213.359 68.7005 213.364 68.5795 213.382C66.4763 213.715 68.3782 212.592 66.5586 213.494C64.737 214.4 65.5655 214.164 65.2723 213.956C64.98 213.745 64.1631 213.618 63.8591 213.769C63.5552 213.919 62.808 213.937 62.4335 213.944L62.5264 213.364C61.8866 213.091 60.609 212.537 59.0904 213.293C57.5708 214.046 58.0499 213.099 57.8273 213.029C57.6047 212.961 57.0085 212.903 56.7859 212.838C56.5632 212.768 55.817 212.782 55.4415 212.791C55.3098 213.033 55.0456 213.521 54.823 213.455C54.6013 213.387 54.2152 213.757 53.9945 213.689C53.7719 213.622 53.1631 213.922 53.0121 213.997C52.8611 214.072 52.4865 214.081 52.3346 214.154C52.1826 214.23 51.5041 214.389 51.4247 214.608C51.4112 214.641 51.3899 214.681 51.3647 214.722C51.3434 214.758 51.3202 214.799 51.2931 214.843C51.2854 214.855 51.2786 214.865 51.2699 214.881C51.2399 214.932 51.2099 214.985 51.1837 215.044L51.1828 215.046C51.1595 215.098 51.1421 215.153 51.1276 215.21C51.1257 215.216 51.1218 215.222 51.1208 215.231L51.1228 215.234C51.0966 215.356 51.1005 215.487 51.1673 215.623C51.3773 216.051 51.1547 215.983 51.0734 216.201C50.994 216.42 50.9118 216.639 50.9824 216.784C51.0521 216.926 51.3454 217.135 51.416 217.278C51.4857 217.421 51.5564 217.564 51.627 217.708C51.6977 217.85 51.9077 218.278 51.7548 218.354C51.6038 218.429 51.5012 218.48 51.4509 218.504L51.4393 218.865L51.4276 219.224L51.2757 219.301C51.1992 219.398 51.0434 219.594 51.3357 219.805C51.628 220.016 51.5477 220.234 51.3957 220.31C51.2438 220.385 51.689 220.522 51.9097 220.589C51.8293 220.807 51.6657 221.243 51.8767 221.672C52.0877 222.101 53.1166 222.659 53.3383 222.725C53.5599 222.79 54.0042 222.926 54.3681 223.278C54.5626 223.47 54.974 223.758 55.426 223.984L55.4289 223.988C55.4715 224.009 55.515 224.027 55.5586 224.049C55.5992 224.067 55.637 224.084 55.6767 224.103C55.7396 224.129 55.8015 224.151 55.8644 224.173C55.906 224.188 55.9486 224.205 55.9903 224.218C56.0551 224.238 56.118 224.253 56.1829 224.267C56.2196 224.275 56.2564 224.288 56.2932 224.292C56.3919 224.31 56.4858 224.318 56.5768 224.317C57.3259 224.3 58.5881 224.565 58.9278 225.637C59.2685 226.715 59.6353 227.718 59.8192 228.219C59.7911 228.293 59.7379 228.437 59.9363 229.226C60.1376 230.017 60.5819 230.151 60.5577 230.874C60.5345 231.595 60.8636 233.032 61.1442 233.605C61.4259 234.176 61.2643 234.611 61.5556 234.824C61.8469 235.034 62.4093 236.18 62.539 236.826C62.6696 237.471 63.5127 239.188 63.9443 239.683C64.3779 240.18 64.4273 241.044 65.6188 241.165C66.8102 241.284 67.6823 240.494 68.1188 240.101C67.5332 239.678 66.6002 240.853 66.364 238.836C66.1269 236.821 65.7901 238.054 66.0456 237.04C66.3011 236.021 65.8346 236.61 65.401 236.115C64.9683 235.617 64.8977 235.475 65.2829 235.105C65.6691 234.736 65.3874 234.164 65.4697 233.948C65.551 233.727 64.9742 233.068 64.6848 232.737C65.1097 232.703 65.9585 232.638 65.4668 231.638C64.9751 230.639 66.2847 231.765 66.7744 230.455C67.2661 229.144 66.7502 228.865 66.5286 228.8C66.305 228.733 66.2585 228.639 66.2353 228.589L67.45 227.986L67.6958 227.329C67.9446 226.555 68.4401 225.004 68.3114 224.357C68.1817 223.711 67.8071 223.72 68.053 223.063C68.2988 222.408 68.3927 221.827 68.928 221.385C69.4651 220.94 69.7565 221.151 69.9326 220.351C70.1068 219.555 70.0817 217.967 69.7187 217.613C69.3558 217.261 69.227 216.614 69.3083 216.396C69.3287 216.343 69.4138 216.13 69.5077 215.84C69.5106 215.829 69.5135 215.819 69.5174 215.811C69.5329 215.758 69.5484 215.703 69.5658 215.648C69.5735 215.619 69.5832 215.589 69.591 215.558C69.6045 215.513 69.6161 215.461 69.6287 215.415C69.6394 215.371 69.65 215.33 69.6616 215.285C69.6713 215.245 69.68 215.199 69.6887 215.154C69.6994 215.103 69.711 215.053 69.7197 215.001C69.7274 214.96 69.7313 214.919 69.7381 214.878C69.7439 214.835 69.7526 214.79 69.7574 214.748L69.7565 214.744C69.8271 214.112 69.711 213.509 69.0857 213.392V213.387Z" fill="#6A3906"/>
<path d="M49.5684 216.596C49.2645 216.747 48.6683 216.69 48.2231 216.552C47.7798 216.416 48.0121 216.125 47.7304 215.554C47.4488 214.981 47.7546 214.831 47.0055 214.845C46.2573 214.863 46.2457 215.223 45.9418 215.373C45.6388 215.523 45.4172 215.457 45.2759 215.172C45.1346 214.885 44.9942 214.599 45.1704 213.802C45.3436 213.006 44.8887 213.23 44.0467 213.824C43.2056 214.42 43.8841 214.261 43.7098 215.06C43.5356 215.856 43.3953 215.57 42.7874 215.873C42.1796 216.176 41.4547 215.467 40.6474 214.98C39.8402 214.49 40.2951 214.265 40.0377 212.974C39.7793 211.678 39.9903 212.106 40.5274 211.661C41.0646 211.217 42.257 211.336 41.8234 210.841C41.3908 210.343 41.835 210.479 42.5242 209.96C43.2123 209.44 43.0623 209.515 43.7389 209.356C44.4174 209.198 44.8064 209.479 45.001 209.619C45.5624 209.991 46.687 210.737 46.5457 210.451C46.4054 210.166 46.055 209.452 45.7617 209.241C45.4694 209.029 45.8179 207.435 45.9108 206.856C45.9911 206.355 46.3976 205.955 46.2399 205.305L46.2447 205.316C46.2438 205.311 46.2399 205.302 46.2379 205.297C46.2128 205.196 46.175 205.088 46.1179 204.973C45.6959 204.117 45.7782 203.898 45.8818 202.959C45.9853 202.016 47.2494 202.281 46.7461 201.64C46.2428 201.001 46.7683 200.919 46.9435 200.12C47.1168 199.324 47.3278 199.754 48.2521 198.939C49.1745 198.124 48.4254 198.14 47.8417 197.718C47.2562 197.296 46.1237 197.684 46.5186 196.951C46.9164 196.221 47.8272 195.77 48.5154 195.25C49.2035 194.73 49.8017 194.79 49.7533 193.927C49.7059 193.058 49.2616 192.927 48.3131 192.153C47.3665 191.378 46.8177 192.182 46.0918 191.478C45.3668 190.77 44.1173 190.147 44.035 190.363C43.9537 190.583 44.5983 191.509 42.7971 191.69C40.9969 191.872 42.2241 190.906 40.6697 190.436C40.5236 190.39 40.3968 190.347 40.2806 190.311C40.2477 190.299 40.2109 190.29 40.18 190.28C40.1577 190.27 40.1374 190.264 40.117 190.258C40.0628 190.24 40.0096 190.223 39.9612 190.206C39.9457 190.201 39.9312 190.198 39.9186 190.192C39.8451 190.17 39.7783 190.149 39.7183 190.131C39.7067 190.128 39.6941 190.125 39.6834 190.122C39.6205 190.104 39.5654 190.095 39.515 190.089C39.5044 190.089 39.4947 190.088 39.485 190.086C39.3844 190.079 39.3031 190.095 39.2227 190.143C39.2159 190.148 39.2092 190.151 39.2024 190.154C39.1617 190.183 39.1221 190.216 39.0785 190.256C39.0785 190.257 39.0766 190.26 39.0746 190.261C38.9333 190.403 38.7659 190.634 38.4862 190.986C37.5531 192.159 38.6855 191.776 38.4513 192.069C38.2171 192.362 38.6284 193.583 39.9719 193.626C40.2613 193.637 40.4548 193.693 40.5855 193.773C40.6203 193.794 40.6513 193.817 40.6775 193.843C40.6881 193.854 40.6978 193.863 40.7084 193.873C40.7346 193.905 40.7578 193.936 40.7723 193.974C40.7742 193.977 40.7771 193.981 40.7791 193.986C40.7946 194.024 40.8033 194.064 40.8091 194.107C40.81 194.121 40.811 194.131 40.8101 194.144C40.812 194.172 40.811 194.205 40.8081 194.233C40.781 194.49 40.6058 194.735 40.5332 194.77C40.3832 194.845 40.4171 196.07 40.7694 196.785C41.1217 197.5 40.4916 198.525 39.8944 198.465C39.2992 198.405 39.1104 197.255 38.8878 197.188C38.6662 197.122 37.7777 196.85 36.9588 196.723C36.1419 196.594 35.9087 196.889 35.1605 196.905C34.4114 196.923 33.5248 196.649 33.3128 196.222C33.1009 195.793 32.3866 194.725 32.5511 194.291C32.7137 193.853 32.7476 192.771 33.0631 192.256C33.3767 191.747 33.7048 190.873 33.6458 190.367C33.5858 189.866 34.0533 189.278 34.3697 188.766C34.6824 188.255 34.5546 187.61 34.4249 186.961C34.2962 186.315 33.4299 185.32 32.0855 185.278C30.7421 185.234 32.2259 185.564 32.7892 186.707C33.3515 187.852 32.9537 188.583 32.3701 188.159C31.7845 187.739 31.6326 187.815 31.1177 187.536C30.6047 187.259 29.4926 186.92 29.4229 186.777C29.3532 186.635 29.4229 186.777 29.1422 186.207C28.8606 185.635 28.8606 185.635 27.61 185.012C26.3595 184.386 27.2936 185.523 27.3439 186.389C27.3903 187.256 27.8472 187.028 28.4415 187.088C29.0377 187.149 29.2487 187.577 29.2961 188.443C29.3445 189.307 29.2613 189.527 28.6544 189.828C28.0456 190.13 27.4281 190.791 26.3179 190.456C25.2068 190.116 25.1855 190.841 24.6464 191.284C24.1102 191.729 25.2794 192.572 24.6125 192.368C23.9456 192.164 23.1171 192.4 23.0349 192.616C22.9536 192.837 22.1231 193.069 21.6092 192.793C21.4679 192.717 21.3091 192.677 21.1397 192.652L21.1378 192.646C21.0081 192.628 20.8678 192.623 20.7197 192.623C20.6461 192.62 20.5609 192.622 20.4835 192.623C20.3635 192.627 20.2377 192.629 20.1051 192.632C19.9018 192.635 19.6821 192.634 19.4459 192.621C18.4761 192.568 18.1722 192.721 17.4124 193.096C16.6526 193.473 16.2906 193.118 16.1387 193.196C15.9867 193.269 14.3636 194.967 13.8148 195.77C13.267 196.575 13.4993 196.282 12.4481 196.448C11.397 196.616 9.82905 196.503 8.70824 196.525C7.58646 196.549 5.9188 197.26 5.08545 197.612L10.2278 207.681C10.3014 206.935 10.4475 205.441 11.4406 204.769C12.4336 204.1 13.5322 204.798 14.5136 204.49C15.495 204.182 16.5936 204.879 18.0203 204.705C19.4459 204.531 19.2727 205.331 21.1185 206.013C22.9671 206.695 26.2773 210.742 26.4079 211.389C26.5376 212.035 29.088 214.148 30.5021 214.334C30.7063 214.361 30.9154 214.376 31.1244 214.391C31.1932 214.393 31.2599 214.397 31.3277 214.399C31.4767 214.403 31.6219 214.41 31.7661 214.41C31.7903 214.411 31.8155 214.412 31.8397 214.411C32.7989 214.416 33.6555 214.36 34.0097 214.552C34.5227 214.829 37.0963 216.221 37.4592 216.574C37.8222 216.925 38.1155 217.138 38.3371 217.203C38.5588 217.27 39.8209 217.533 41.2475 217.358C42.6723 217.183 42.3809 216.973 43.222 216.378C44.0621 215.782 44.4909 216.399 44.7058 216.708C45.032 216.604 45.6872 216.401 46.2137 216.316C46.7383 216.233 47.169 216.853 47.382 217.157L48.7961 217.344C49.1561 217.033 49.8714 216.44 49.5684 216.585V216.596Z" fill="#6A3906"/>
<path d="M126.367 139.186C126.297 139.043 125.299 139.066 124.801 139.076C124.66 138.79 124.378 138.218 123.013 138.895C121.645 139.573 121.249 140.303 120.817 139.807C120.383 139.31 120.454 139.453 120.009 139.318C119.565 139.182 117.988 139.433 117.614 139.441C117.238 139.45 115.906 139.044 116.106 139.832C116.306 140.623 116.276 141.585 116.261 142.069C115.586 142.105 114.238 142.182 114.087 142.255C113.935 142.331 113.663 143.059 113.526 143.423L112.112 143.237L111.925 142.084C111.188 141.962 109.858 141.74 109.326 141.705V141.704C109.313 141.703 109.305 141.704 109.294 141.703C109.263 141.702 109.232 141.699 109.208 141.7C109.154 141.7 109.113 141.702 109.096 141.711C109.08 141.719 109.084 141.728 109.097 141.737C109.098 141.74 109.099 141.742 109.102 141.744C109.117 141.755 109.138 141.764 109.163 141.776C109.203 141.794 109.248 141.815 109.299 141.84C109.301 141.84 109.303 141.841 109.305 141.842C109.347 141.863 109.39 141.889 109.426 141.917C109.508 141.978 109.563 142.058 109.542 142.158C109.536 142.191 109.521 142.224 109.494 142.264C109.491 142.268 109.485 142.274 109.48 142.28C109.456 142.312 109.424 142.346 109.385 142.382C109.368 142.395 109.352 142.409 109.334 142.424C109.294 142.454 109.248 142.485 109.195 142.522C109.173 142.538 109.151 142.551 109.125 142.566C109.044 142.618 108.951 142.669 108.838 142.724C107.32 143.478 106.419 143.569 106.115 143.722C105.812 143.868 104.434 144.912 104.282 144.986C104.13 145.062 103.266 145.609 102.833 145.884C103.048 145.421 103.475 144.496 103.556 144.279C103.639 144.063 103.764 142.398 103.916 142.323C104.069 142.247 103.881 141.095 103.295 140.676C102.71 140.255 101.6 139.918 101.216 140.286C100.831 140.656 100.331 140.667 100.081 140.671C99.8628 140.485 99.4272 140.108 99.3566 139.964C99.2869 139.821 98.409 139.189 98.4565 140.055C98.5049 140.923 98.1671 142.155 98.1448 142.878C98.1216 143.6 95.3292 144.453 95.0621 145.829C94.794 147.207 94.0826 148.447 94.2936 148.877C94.3071 148.903 94.311 148.931 94.31 148.958C94.31 148.975 94.3023 148.992 94.2965 149.009C94.2946 149.018 94.2936 149.029 94.2887 149.037C94.2781 149.057 94.2617 149.077 94.2442 149.098C94.2413 149.102 94.2375 149.11 94.2336 149.114C94.2152 149.135 94.192 149.155 94.1678 149.176C94.162 149.181 94.1562 149.184 94.1503 149.193C93.7777 149.499 92.9202 149.829 93.348 150.415C93.921 151.199 94.7998 151.828 94.7175 152.047C94.6353 152.265 93.7593 151.634 93.2212 152.079C92.684 152.521 91.691 153.194 92.3336 154.119C92.9782 155.043 92.2078 155.781 91.8226 156.152C91.3435 155.561 90.3833 154.376 90.4656 154.158C90.5469 153.937 91.3028 151.256 89.9943 152.436C88.6876 153.619 87.6955 154.288 88.8531 155.494C90.0117 156.695 90.4337 157.555 90.7966 157.906C91.1596 158.258 88.9973 158.088 88.7737 158.02C88.5511 157.954 86.5515 157.348 86.9725 158.203C87.3955 159.062 87.6762 159.634 87.3742 159.782C87.0703 159.934 85.2468 160.839 85.0958 160.913C84.9438 160.989 85.0348 160.408 84.3244 161.652C83.613 162.894 83.5191 163.474 83.5094 163.834C83.4978 164.196 82.8745 163.439 82.5619 163.061C82.5135 163.234 82.4486 163.484 82.4147 163.739L82.4128 163.735C82.4099 163.754 82.4099 163.772 82.407 163.793C82.4022 163.839 82.3983 163.885 82.3954 163.933C82.3944 163.968 82.3935 164.005 82.3925 164.042C82.3925 164.088 82.3964 164.13 82.3993 164.173C82.4022 164.207 82.4051 164.242 82.4118 164.274C82.4196 164.32 82.4331 164.361 82.4477 164.402C82.4554 164.428 82.4622 164.457 82.4738 164.48C82.5038 164.542 82.5396 164.601 82.589 164.648C82.9519 165.002 82.3983 165.159 82.1215 165.236C81.6182 165.367 80.6135 165.628 81.1981 166.049C81.7827 166.471 82.0053 166.538 82.1466 166.824C82.287 167.109 81.3907 167.08 80.9416 167.067C81.082 167.353 81.3636 167.923 81.2117 167.999C81.0587 168.074 80.0221 167.759 79.5043 167.603L78.2045 166.113L80.5293 165.849L81.3007 165.109C81.3123 164.75 81.3346 164.026 80.7384 163.965C80.1422 163.906 78.7978 163.863 78.5761 163.794C78.3545 163.725 78.2954 163.224 77.314 163.531C76.3335 163.84 75.3502 164.151 75.2098 163.865C75.0695 163.58 73.2711 163.761 72.9546 164.275C72.6391 164.785 71.4835 165.893 71.5319 166.759C71.5783 167.625 71.0189 168.789 71.0673 169.657C71.1137 170.521 70.4962 171.182 70.9182 172.04C71.3402 172.899 70.9444 173.629 70.7798 174.065C70.6153 174.501 69.4828 174.886 69.9745 175.886C70.4672 176.885 70.4556 177.245 70.8185 177.601C71.1805 177.955 72.2316 177.788 72.4659 177.497C72.7011 177.201 73.7377 175.088 74.3 176.232C74.8633 177.374 74.6862 178.171 75.144 177.945C75.6008 177.72 75.4102 176.568 75.4334 175.845C75.4557 175.124 75.8312 175.115 75.6202 174.687C75.4092 174.259 74.7317 174.419 74.45 173.846C74.1693 173.275 73.7357 172.779 73.818 172.56C73.8993 172.343 74.2255 171.469 74.6097 171.1C74.9969 170.731 74.6339 170.377 74.6562 169.657C74.6785 168.935 74.4568 168.866 75.2863 168.631C76.1148 168.4 76.0335 168.615 76.2338 169.407C76.4323 170.196 76.047 170.565 75.8719 171.365C75.6986 172.161 75.746 173.027 76.4129 173.228C77.0788 173.433 77.7689 172.914 78.0012 172.619C78.2345 172.323 78.399 171.888 78.7716 171.88C79.1452 171.871 79.9544 172.361 79.7192 172.654C79.4869 172.948 78.3419 173.692 77.886 173.921C77.4301 174.145 78.3893 174.56 78.6003 174.99C78.8113 175.417 78.7561 175.564 78.729 175.636C78.3516 175.763 77.5966 176.021 77.737 176.306C77.8773 176.593 77.6895 177.751 77.6092 177.969C77.5289 178.187 76.8494 178.345 76.4632 178.715C76.0799 179.085 74.42 179.552 74.2671 179.628C74.1151 179.703 73.1811 180.877 73.2508 181.021C73.3215 181.165 72.4804 181.758 72.6914 182.188C72.7156 182.235 72.7243 182.289 72.7272 182.35C72.7282 182.364 72.7282 182.377 72.7282 182.391C72.7195 182.849 72.2113 183.518 72.2723 183.64C72.342 183.781 71.8871 184.01 71.7951 184.589C71.7012 185.168 71.9006 185.958 72.041 186.245C72.1813 186.529 72.5026 187.438 72.6623 187.891C72.2849 188.019 71.529 188.276 71.225 188.428C70.9221 188.577 68.9002 188.691 69.6251 189.398C70.351 190.106 72.0119 191.947 72.1639 191.872C72.3168 191.797 73.5431 190.833 73.998 190.606C74.4539 190.379 74.5584 189.44 74.6504 188.859C74.7317 188.354 74.4258 187.639 74.9524 186.928C75.0308 186.82 75.1256 186.715 75.2447 186.609C76.168 185.797 76.3316 185.361 76.9965 185.562C77.6634 185.766 79.907 185.719 79.9766 185.863C80.0473 186.005 80.5506 186.645 80.3183 186.937C80.0851 187.23 79.1133 187.179 79.4763 187.532C79.8392 187.885 79.9805 188.172 80.2835 188.02C80.5874 187.869 80.3183 186.937 80.7035 186.567C81.0887 186.198 81.7072 185.535 80.8894 185.408C80.0705 185.281 79.1007 185.229 78.6565 185.097C78.2112 184.961 77.5782 183.676 77.7302 183.599C77.8821 183.524 78.5384 184.088 79.2023 184.29C79.8702 184.493 80.327 184.267 80.839 184.545C81.3549 184.824 80.4674 184.554 81.5659 185.254C82.6664 185.951 83.4126 185.934 83.5646 185.86C83.7165 185.784 82.6974 184.868 82.7109 184.505C82.7216 184.143 83.3517 183.121 83.855 183.76C84.3583 184.397 84.0427 184.91 84.8625 185.037C85.6794 185.163 85.1442 185.609 86.5108 184.929C87.8765 184.252 88.1098 183.958 88.3324 184.025C88.556 184.092 88.193 183.74 88.6953 184.378C89.1986 185.016 89.4096 185.447 89.399 185.807C89.3864 186.169 88.7089 186.326 88.7796 186.471C88.8483 186.613 89.278 187.229 89.4919 187.54C89.9594 187.724 90.3107 187.667 90.8963 188.087C91.4809 188.51 91.4103 188.365 92.2872 188.998C93.165 189.626 93.0131 189.704 93.528 189.982C94.041 190.26 94.4862 190.395 94.7785 190.608C95.0708 190.818 95.7038 191.334 96.0184 191.594C96.0377 191.583 96.0609 191.573 96.0861 191.56V191.559C96.2516 191.474 96.5371 191.315 97.0104 190.924C97.5476 190.478 97.6405 189.899 98.0954 189.672C98.5532 189.447 98.5755 188.723 98.7275 188.648C98.8775 188.574 99.0411 188.139 99.4282 187.768C99.8115 187.399 100.057 186.743 99.9877 186.6C99.918 186.458 100.092 185.661 99.9518 185.375C99.8105 185.088 98.9327 184.459 98.6287 184.61C98.3248 184.759 97.777 185.565 97.6947 185.784C97.6134 186.002 97.0617 186.159 96.784 186.236C96.3949 185.957 95.6167 185.396 95.3931 185.326C95.2305 185.276 95.4057 184.615 95.428 184.142C95.3641 183.995 95.365 183.843 95.367 183.738C95.425 183.82 95.4347 183.969 95.428 184.142C95.5102 184.33 95.7028 184.517 96.1635 184.587C96.9814 184.717 97.2853 184.566 97.5892 184.414C97.8941 184.264 98.3481 184.036 98.7933 184.171C99.2375 184.307 99.6924 184.08 100.148 183.853C100.602 183.628 100.987 183.26 101.515 183.177C102.041 183.092 102.508 182.507 102.871 182.86C103.233 183.211 104.273 183.407 104.495 183.476C104.718 183.541 104.962 182.889 105.255 183.098C105.547 183.31 105.769 183.374 106.051 183.948C106.331 184.519 106.917 184.941 107.28 185.293C107.643 185.648 108.53 185.918 108.74 186.346C108.951 186.774 109.081 187.42 109.689 187.121C110.296 186.818 110.167 186.172 110.179 185.811C110.19 185.448 109.815 184.685 109.628 184.304C109.664 183.992 109.731 183.364 110.048 182.853C110.265 182.498 110.163 182.22 110.231 181.886C110.241 181.834 110.258 181.781 110.279 181.726C110.288 181.703 110.299 181.674 110.311 181.647C110.35 181.569 110.395 181.489 110.465 181.401C110.933 180.814 110.266 180.612 111.329 180.085C112.392 179.558 111.666 178.849 112.626 179.263C113.584 179.677 114.251 179.877 114.461 180.306C114.672 180.734 114.427 181.39 114.883 181.164C115.339 180.939 114.823 180.659 115.431 180.359C116.04 180.056 116.04 180.056 116.321 180.626C116.602 181.2 116.297 181.351 116.883 181.773C117.468 182.193 117.175 181.983 117.42 181.328C117.664 180.673 117.887 180.741 118.33 180.876C118.774 181.011 118.857 180.792 119.441 181.213C120.026 181.635 120.086 182.138 120.493 181.048C120.9 179.955 121.333 180.454 120.911 179.595C120.489 178.737 120.652 178.299 119.823 178.535C118.993 178.768 118.854 178.481 118.49 178.129C118.128 177.776 117.555 176.993 118.466 176.54C119.376 176.088 120.51 175.705 121.129 175.041C121.748 174.378 122.145 173.645 122.155 173.287C122.167 172.925 122.509 171.569 122.68 170.893L121.534 169.328L120.351 168.849C120.223 168.972 119.967 169.217 120.515 168.413C121.063 167.607 121.683 166.943 120.922 167.321C120.163 167.698 119.778 168.068 119.707 167.925C119.639 167.783 118.738 167.871 118.668 167.731C118.597 167.588 120.057 166.329 120.139 166.112C120.148 166.086 120.172 166.063 120.201 166.035C120.21 166.028 120.22 166.02 120.23 166.014C120.257 165.993 120.288 165.974 120.324 165.953C120.335 165.946 120.345 165.941 120.358 165.935C120.406 165.909 120.459 165.884 120.518 165.863C120.53 165.858 120.544 165.856 120.556 165.851C120.605 165.831 120.655 165.816 120.707 165.8C120.727 165.796 120.748 165.79 120.768 165.785C120.819 165.77 120.87 165.761 120.92 165.751C120.937 165.748 120.952 165.746 120.968 165.741C121.184 165.708 121.388 165.713 121.495 165.791C121.787 166.003 122.162 165.996 122.595 166.491C123.029 166.989 122.724 167.139 123.087 167.49C123.45 167.844 123.764 167.333 123.846 167.114C123.928 166.895 124.245 166.385 123.951 166.173C123.658 165.961 123.073 165.543 122.78 165.33C122.686 165.141 122.499 164.76 122.581 164.541C122.663 164.321 122.979 163.81 123.059 163.59C123.14 163.375 122.405 163.027 123.538 162.641C124.672 162.256 124.684 161.895 124.928 161.243C125.172 160.587 125.055 159.579 125.218 159.142C125.38 158.705 125.171 158.278 124.888 157.704C124.607 157.131 124.489 156.123 124.267 156.057C124.045 155.992 123.157 155.72 122.853 155.871C122.55 156.02 121.808 155.797 121.439 155.685C121.599 155.37 121.918 154.735 121.999 154.517C122.081 154.301 121.053 153.743 121.987 152.57C122.92 151.396 122.405 151.117 123.843 150.582C125.278 150.046 125.128 150.12 126.039 149.67C126.95 149.217 127.114 148.782 127.357 148.126C127.602 147.47 127.588 145.522 128.619 146.08C129.647 146.634 129.67 145.913 129.681 145.552C128.568 143.51 126.41 139.367 126.332 139.222L126.367 139.186Z" fill="#6A3906"/>
</g>
<path d="M17.9679 189.632C18.1014 190.454 17.9979 191.18 17.6562 191.811C17.3155 192.441 16.7435 192.962 15.9401 193.369C15.4485 193.62 14.9481 193.767 14.4409 193.812C13.9337 193.856 13.4343 193.797 12.9416 193.635C12.3725 193.447 11.8741 193.158 11.4472 192.767C11.0204 192.378 10.6536 191.878 10.3458 191.268C9.75245 190.087 9.61211 188.964 9.9257 187.896C10.2393 186.827 10.9526 186.011 12.0618 185.447C12.4741 185.237 12.9387 185.068 13.4585 184.941C13.9792 184.813 14.5638 184.723 15.2113 184.671L16.0911 186.422L15.5191 186.712C15.0739 186.138 14.587 185.796 14.0586 185.684C13.5301 185.575 12.9271 185.691 12.2496 186.035C11.4433 186.444 10.9768 187.041 10.851 187.828C10.7252 188.614 10.9429 189.562 11.5043 190.68C12.0638 191.792 12.6948 192.528 13.4004 192.892C14.105 193.255 14.86 193.233 15.6662 192.824C16.2295 192.537 16.6254 192.166 16.8548 191.711C17.0842 191.256 17.1442 190.72 17.0367 190.103L17.9679 189.636V189.632Z" fill="#241E51" stroke="white" stroke-width="2"/>
<path d="M22.6699 185.043C22.939 184.985 23.1974 184.992 23.4452 185.062C23.6939 185.128 23.9543 185.268 24.2302 185.477L26.4621 187.172L27.3835 186.704L27.6536 187.245L25.8727 188.149L23.4771 186.334C23.0155 185.981 22.6564 185.786 22.398 185.744C22.1405 185.703 21.8463 185.764 21.5152 185.932L20.3867 186.506L21.8917 189.496L22.9603 188.953L23.2313 189.492L20.1738 191.045L19.9037 190.506L20.8648 190.017L17.5895 183.509L16.6274 183.997L16.3535 183.454L20.1854 181.508C20.921 181.134 21.5772 181.022 22.155 181.171C22.7319 181.319 23.1839 181.718 23.5091 182.366C23.7714 182.888 23.8324 183.373 23.691 183.82C23.5497 184.268 23.209 184.666 22.6699 185.036V185.043ZM20.1118 185.957L21.6053 185.198C22.1144 184.94 22.4299 184.627 22.5509 184.262C22.6719 183.896 22.6051 183.459 22.3486 182.95C22.0931 182.442 21.7833 182.128 21.4185 182.012C21.0545 181.894 20.618 181.963 20.1079 182.224L18.6155 182.982L20.1118 185.958V185.957Z" fill="#241E51" stroke="white" stroke-width="2"/>
<path d="M27.978 187.075L27.706 186.535L28.6681 186.046L25.3918 179.539L24.4307 180.028L24.1577 179.483L30.2409 176.392L31.0897 178.08L30.4674 178.395L29.9321 177.333L26.4593 179.096L27.7389 181.636L30.2147 180.379L29.7356 179.428L30.3589 179.112L31.6288 181.635L31.0055 181.95L30.5274 181L28.0515 182.256L29.6505 185.435L33.2045 183.631L32.6693 182.567L33.2916 182.252L34.1414 183.939L27.978 187.08V187.075Z" fill="#241E51" stroke="white" stroke-width="2"/>
<path d="M35.5439 183.234L35.2738 182.694L36.234 182.205L32.9587 175.698L31.9975 176.187L31.7236 175.642L34.7299 174.116C36.0327 173.453 37.2144 173.273 38.2781 173.57C39.3418 173.87 40.1733 174.612 40.7714 175.802C41.3715 176.996 41.476 178.113 41.085 179.154C40.694 180.194 39.85 181.045 38.5501 181.705L35.5439 183.232V183.234ZM37.2619 181.678L38.2036 181.201C39.1851 180.701 39.7968 180.038 40.0387 179.208C40.2807 178.378 40.1365 177.44 39.608 176.39C39.0796 175.338 38.4136 174.667 37.6113 174.378C36.8089 174.088 35.9146 174.194 34.9293 174.693L33.9875 175.171L37.2619 181.686V181.678Z" fill="#241E51" stroke="white" stroke-width="2"/>
<path d="M45.5719 177.458L46.534 176.97L46.804 177.51L43.8539 179.009L43.5829 178.468L44.545 177.98L41.2687 171.473L40.3076 171.961L40.0337 171.417L42.9838 169.917L43.2577 170.463L42.2966 170.951L45.5719 177.456V177.458Z" fill="#241E51" stroke="white" stroke-width="2"/>
<path d="M49.3561 176.214L49.0841 175.674L50.0511 175.183L46.8057 168.735L44.5845 169.864L45.1797 171.048L44.5573 171.365L43.6562 169.575L50.3676 166.166L51.2687 167.956L50.6453 168.272L50.0491 167.086L47.8278 168.215L51.0722 174.662L52.0401 174.171L52.3101 174.71L49.3561 176.208V176.214Z" fill="#241E51" stroke="white" stroke-width="2"/>
<path d="M63.8824 166.315C64.0169 167.137 63.9124 167.863 63.5717 168.494C63.23 169.124 62.658 169.644 61.8557 170.053C61.363 170.303 60.8636 170.449 60.3554 170.495C59.8492 170.539 59.3488 170.48 58.8562 170.318C58.2871 170.13 57.7886 169.842 57.3627 169.452C56.9359 169.062 56.5691 168.562 56.2603 167.951C55.667 166.771 55.5267 165.648 55.8403 164.579C56.1538 163.51 56.8672 162.695 57.9764 162.13C58.3887 161.921 58.8542 161.752 59.375 161.623C59.8947 161.495 60.4784 161.404 61.1259 161.354L62.0066 163.103L61.4337 163.394C60.9884 162.82 60.5016 162.48 59.9741 162.367C59.4456 162.256 58.8426 162.374 58.1641 162.716C57.3579 163.127 56.8923 163.723 56.7665 164.51C56.6397 165.296 56.8585 166.245 57.4189 167.361C57.9783 168.473 58.6103 169.211 59.315 169.574C60.0196 169.938 60.7745 169.916 61.5808 169.506C62.1441 169.22 62.5399 168.849 62.7693 168.395C62.9978 167.939 63.0597 167.402 62.9513 166.785L63.8824 166.319V166.315Z" fill="#241E51" stroke="white" stroke-width="2"/>
<path d="M65.4553 168.036L65.1843 167.495L65.8473 167.159L64.9907 158.739L65.8415 158.308L72.0872 163.991L72.8325 163.613L73.1026 164.151L70.3547 165.548L70.0837 165.009L70.9238 164.582L69.4517 163.235L66.2732 164.849L66.4803 166.839L67.3098 166.417L67.5808 166.957L65.4553 168.036V168.036ZM66.2064 164.195L68.9794 162.786L65.7757 159.882L66.2064 164.199V164.195Z" fill="#241E51" stroke="white" stroke-width="2"/>
<path d="M76.0698 157.913C76.3379 157.856 76.5973 157.864 76.8451 157.932C77.0938 157.999 77.3542 158.139 77.6301 158.349L79.862 160.042L80.7834 159.576L81.0535 160.115L79.2726 161.021L76.877 159.205C76.4154 158.853 76.0563 158.655 75.7979 158.615C75.5394 158.574 75.2462 158.636 74.9151 158.804L73.7866 159.377L75.2917 162.367L76.3602 161.823L76.6302 162.363L73.5737 163.916L73.3036 163.377L74.2647 162.888L70.9894 156.38L70.0273 156.869L69.7534 156.325L73.5853 154.379C74.3209 154.005 74.9771 153.894 75.5549 154.041C76.1318 154.19 76.5838 154.589 76.909 155.237C77.1713 155.758 77.2323 156.243 77.0909 156.691C76.9496 157.139 76.6089 157.547 76.0698 157.916V157.913ZM73.5117 158.828L75.0052 158.07C75.5143 157.809 75.8298 157.499 75.9508 157.133C76.0718 156.767 76.005 156.33 75.7485 155.821C75.493 155.313 75.1832 154.999 74.8184 154.882C74.4544 154.765 74.0179 154.835 73.5078 155.094L72.0154 155.852L73.5117 158.828V158.828Z" fill="#241E51" stroke="white" stroke-width="2"/>
<path d="M81.3779 159.946L81.1059 159.406L82.068 158.918L78.7917 152.41L77.8306 152.898L77.5576 152.354L80.5629 150.828C81.8657 150.166 83.0475 149.985 84.1112 150.282C85.1749 150.58 86.0053 151.324 86.6044 152.515C87.2045 153.709 87.31 154.825 86.918 155.866C86.527 156.906 85.682 157.757 84.3831 158.417L81.3779 159.934V159.946ZM83.0949 158.4L84.0366 157.922C85.02 157.423 85.6298 156.759 85.8717 155.93C86.1137 155.099 85.9705 154.161 85.441 153.111C84.9116 152.06 84.2467 151.389 83.4443 151.1C82.6409 150.809 81.7476 150.915 80.7623 151.414L79.8205 151.892L83.0949 158.406V158.4Z" fill="#241E51" stroke="white" stroke-width="2"/>
<path d="M17.9679 189.632C18.1014 190.454 17.9979 191.18 17.6562 191.811C17.3155 192.441 16.7435 192.962 15.9401 193.369C15.4485 193.62 14.9481 193.767 14.4409 193.812C13.9337 193.856 13.4343 193.797 12.9416 193.635C12.3725 193.447 11.8741 193.158 11.4472 192.767C11.0204 192.378 10.6536 191.878 10.3458 191.268C9.75245 190.087 9.61211 188.964 9.9257 187.896C10.2393 186.827 10.9526 186.011 12.0618 185.447C12.4741 185.237 12.9387 185.068 13.4585 184.941C13.9792 184.813 14.5638 184.723 15.2113 184.671L16.0911 186.422L15.5191 186.712C15.0739 186.138 14.587 185.796 14.0586 185.684C13.5301 185.575 12.9271 185.691 12.2496 186.035C11.4433 186.444 10.9768 187.041 10.851 187.828C10.7252 188.614 10.9429 189.562 11.5043 190.68C12.0638 191.792 12.6948 192.528 13.4004 192.892C14.105 193.255 14.86 193.233 15.6662 192.824C16.2295 192.537 16.6254 192.166 16.8548 191.711C17.0842 191.256 17.1442 190.72 17.0367 190.103L17.9679 189.636V189.632Z" fill="#241E51"/>
<path d="M22.6699 185.043C22.939 184.985 23.1974 184.992 23.4452 185.062C23.6939 185.128 23.9543 185.268 24.2302 185.477L26.4621 187.172L27.3835 186.704L27.6536 187.245L25.8727 188.149L23.4771 186.334C23.0155 185.981 22.6564 185.786 22.398 185.744C22.1405 185.703 21.8463 185.764 21.5152 185.932L20.3867 186.506L21.8917 189.496L22.9603 188.953L23.2313 189.492L20.1738 191.045L19.9037 190.506L20.8648 190.017L17.5895 183.509L16.6274 183.997L16.3535 183.454L20.1854 181.508C20.921 181.134 21.5772 181.022 22.155 181.171C22.7319 181.319 23.1839 181.718 23.5091 182.366C23.7714 182.888 23.8324 183.373 23.691 183.82C23.5497 184.268 23.209 184.666 22.6699 185.036V185.043ZM20.1118 185.957L21.6053 185.198C22.1144 184.94 22.4299 184.627 22.5509 184.262C22.6719 183.896 22.6051 183.459 22.3486 182.95C22.0931 182.442 21.7833 182.128 21.4185 182.012C21.0545 181.894 20.618 181.963 20.1079 182.224L18.6155 182.982L20.1118 185.958V185.957Z" fill="#241E51"/>
<path d="M27.978 187.075L27.706 186.535L28.6681 186.046L25.3918 179.539L24.4307 180.028L24.1577 179.483L30.2409 176.392L31.0897 178.08L30.4674 178.395L29.9321 177.333L26.4593 179.096L27.7389 181.636L30.2147 180.379L29.7356 179.428L30.3589 179.112L31.6288 181.635L31.0055 181.95L30.5274 181L28.0515 182.256L29.6505 185.435L33.2045 183.631L32.6693 182.567L33.2916 182.252L34.1414 183.939L27.978 187.08V187.075Z" fill="#241E51"/>
<path d="M35.5439 183.234L35.2738 182.694L36.234 182.205L32.9587 175.698L31.9975 176.187L31.7236 175.642L34.7299 174.116C36.0327 173.453 37.2144 173.273 38.2781 173.57C39.3418 173.87 40.1733 174.612 40.7714 175.802C41.3715 176.996 41.476 178.113 41.085 179.154C40.694 180.194 39.85 181.045 38.5501 181.705L35.5439 183.232V183.234ZM37.2619 181.678L38.2036 181.201C39.1851 180.701 39.7968 180.038 40.0387 179.208C40.2807 178.378 40.1365 177.44 39.608 176.39C39.0796 175.338 38.4136 174.667 37.6113 174.378C36.8089 174.088 35.9146 174.194 34.9293 174.693L33.9875 175.171L37.2619 181.686V181.678Z" fill="#241E51"/>
<path d="M45.5719 177.458L46.534 176.97L46.804 177.51L43.8539 179.009L43.5829 178.468L44.545 177.98L41.2687 171.473L40.3076 171.961L40.0337 171.417L42.9838 169.917L43.2577 170.463L42.2966 170.951L45.5719 177.456V177.458Z" fill="#241E51"/>
<path d="M49.3561 176.214L49.0841 175.674L50.0511 175.183L46.8057 168.735L44.5845 169.864L45.1797 171.048L44.5573 171.365L43.6562 169.575L50.3676 166.166L51.2687 167.956L50.6453 168.272L50.0491 167.086L47.8278 168.215L51.0722 174.662L52.0401 174.171L52.3101 174.71L49.3561 176.208V176.214Z" fill="#241E51"/>
<path d="M63.8824 166.315C64.0169 167.137 63.9124 167.863 63.5717 168.494C63.23 169.124 62.658 169.644 61.8557 170.053C61.363 170.303 60.8636 170.449 60.3554 170.495C59.8492 170.539 59.3488 170.48 58.8562 170.318C58.2871 170.13 57.7886 169.842 57.3627 169.452C56.9359 169.062 56.5691 168.562 56.2603 167.951C55.667 166.771 55.5267 165.648 55.8403 164.579C56.1538 163.51 56.8672 162.695 57.9764 162.13C58.3887 161.921 58.8542 161.752 59.375 161.623C59.8947 161.495 60.4784 161.404 61.1259 161.354L62.0066 163.103L61.4337 163.394C60.9884 162.82 60.5016 162.48 59.9741 162.367C59.4456 162.256 58.8426 162.374 58.1641 162.716C57.3579 163.127 56.8923 163.723 56.7665 164.51C56.6397 165.296 56.8585 166.245 57.4189 167.361C57.9783 168.473 58.6103 169.211 59.315 169.574C60.0196 169.938 60.7745 169.916 61.5808 169.506C62.1441 169.22 62.5399 168.849 62.7693 168.395C62.9978 167.939 63.0597 167.402 62.9513 166.785L63.8824 166.319V166.315Z" fill="#241E51"/>
<path d="M65.4553 168.036L65.1843 167.495L65.8473 167.159L64.9907 158.739L65.8415 158.308L72.0872 163.991L72.8325 163.613L73.1026 164.151L70.3547 165.548L70.0837 165.009L70.9238 164.582L69.4517 163.235L66.2732 164.849L66.4803 166.839L67.3098 166.417L67.5808 166.957L65.4553 168.036V168.036ZM66.2064 164.195L68.9794 162.786L65.7757 159.882L66.2064 164.199V164.195Z" fill="#241E51"/>
<path d="M76.0698 157.913C76.3379 157.856 76.5973 157.864 76.8451 157.932C77.0938 157.999 77.3542 158.139 77.6301 158.349L79.862 160.042L80.7834 159.576L81.0535 160.115L79.2726 161.021L76.877 159.205C76.4154 158.853 76.0563 158.655 75.7979 158.615C75.5394 158.574 75.2462 158.636 74.9151 158.804L73.7866 159.377L75.2917 162.367L76.3602 161.823L76.6302 162.363L73.5737 163.916L73.3036 163.377L74.2647 162.888L70.9894 156.38L70.0273 156.869L69.7534 156.325L73.5853 154.379C74.3209 154.005 74.9771 153.894 75.5549 154.041C76.1318 154.19 76.5838 154.589 76.909 155.237C77.1713 155.758 77.2323 156.243 77.0909 156.691C76.9496 157.139 76.6089 157.547 76.0698 157.916V157.913ZM73.5117 158.828L75.0052 158.07C75.5143 157.809 75.8298 157.499 75.9508 157.133C76.0718 156.767 76.005 156.33 75.7485 155.821C75.493 155.313 75.1832 154.999 74.8184 154.882C74.4544 154.765 74.0179 154.835 73.5078 155.094L72.0154 155.852L73.5117 158.828V158.828Z" fill="#241E51"/>
<path d="M81.3779 159.946L81.1059 159.406L82.068 158.918L78.7917 152.41L77.8306 152.898L77.5576 152.354L80.5629 150.828C81.8657 150.166 83.0475 149.985 84.1112 150.282C85.1749 150.58 86.0053 151.324 86.6044 152.515C87.2045 153.709 87.31 154.825 86.918 155.866C86.527 156.906 85.682 157.757 84.3831 158.417L81.3779 159.934V159.946ZM83.0949 158.4L84.0366 157.922C85.02 157.423 85.6298 156.759 85.8717 155.93C86.1137 155.099 85.9705 154.161 85.441 153.111C84.9116 152.06 84.2467 151.389 83.4443 151.1C82.6409 150.809 81.7476 150.915 80.7623 151.414L79.8205 151.892L83.0949 158.406V158.4Z" fill="#241E51"/>
<path d="M131.158 147.149L153.827 192.656C156.28 197.582 156.453 202.197 151.994 204.313C147.535 206.429 42.7196 259.466 42.7196 259.466C42.7196 259.466 36.4013 260.176 34.0251 255.66C31.649 251.143 1.39582 190.88 1.39582 190.88C1.39582 190.88 -2.4399 185.113 5.57998 181.051C13.5999 176.989 87.6421 139.159 87.6421 139.159" stroke="black" stroke-width="0.5" stroke-miterlimit="10"/>
<path d="M26.6925 199.93L36.2126 195.002C38.8423 193.643 42.0722 194.679 43.4272 197.322L48.3334 206.887C49.6884 209.528 48.6557 212.774 46.026 214.134L36.5049 219.062C33.8752 220.423 30.6463 219.385 29.2903 216.743L24.3841 207.179C23.029 204.544 24.0627 201.306 26.6925 199.935V199.93Z" fill="url(#paint2_linear_38_163)"/>
<path d="M48.5481 206.775L43.6418 197.21C42.6769 195.327 40.7682 194.161 38.6611 194.161C37.7774 194.161 36.8928 194.377 36.1011 194.786L26.581 199.714C23.838 201.135 22.7559 204.534 24.169 207.291L29.0752 216.855C30.0411 218.736 31.9488 219.905 34.0559 219.905C34.9396 219.905 35.8252 219.688 36.616 219.279L46.1361 214.35C47.466 213.662 48.4484 212.495 48.9042 211.063C49.3601 209.634 49.2333 208.117 48.5481 206.775V206.775ZM48.3264 207.524L42.854 210.356L40.5011 205.768L46.0219 202.911L48.1183 206.998C48.2054 207.183 48.2587 207.358 48.3264 207.533V207.524ZM41.0228 215.488L41.4147 216.25L40.8931 216.519L40.5011 215.757L41.0228 215.485V215.488ZM37.9846 216.509L33.1858 218.993L33.3784 219.373C33.2429 219.354 33.1113 219.322 32.9777 219.294L31.6498 216.705L36.6944 214.092L37.7368 216.126L40.1168 214.892L40.3239 215.296L37.9846 216.502V216.509ZM37.9468 215.478L36.9034 213.444L35.7139 214.062L30.919 204.712L30.918 204.713L30.2628 203.435L31.4523 202.818L30.4109 200.785L34.7402 198.543L35.7817 200.576L36.9731 199.961L38.5934 203.118L42.4242 210.588L41.2347 211.205L42.2762 213.238L37.9468 215.484V215.478ZM32.2963 208.457L32.8296 209.495L27.3078 212.354L25.0759 208.002L30.5977 205.146L32.2963 208.452V208.457ZM38.0475 200.99L43.5683 198.132L45.8002 202.485L40.2794 205.342L38.0475 200.986V200.99ZM43.2121 197.431L43.3457 197.692L37.8249 200.55L37.1812 199.296L35.9898 199.912L34.9483 197.878L32.5673 199.113L32.3912 198.768L34.3192 197.772V197.771L40.0007 194.831C41.3702 195.19 42.5414 196.114 43.2121 197.417V197.431ZM31.6933 198.588L31.3023 197.825L31.825 197.555L32.216 198.319L31.6933 198.6V198.588ZM36.3227 195.223C37.0554 194.843 37.8423 194.652 38.6611 194.652C38.8489 194.652 39.0338 194.67 39.2176 194.691L32.6457 198.093L32.2537 197.33L36.3227 195.22V195.223ZM26.8026 200.153L30.8716 198.047L31.2616 198.811L30.1099 199.406V199.407L24.6868 202.213C25.162 201.357 25.8773 200.628 26.8026 200.151V200.153ZM24.3771 202.915L30.3325 199.832L31.9624 198.988L32.1395 199.333L29.7605 200.567L30.8019 202.599L29.6124 203.216L30.378 204.709L24.8562 207.567L24.5997 207.066C23.9115 205.744 23.8873 204.236 24.3771 202.924V202.915ZM27.5304 212.785L33.0522 209.927L35.2832 214.278L29.7963 217.118C29.6937 216.962 29.592 216.804 29.5049 216.635L27.5304 212.794V212.785ZM30.0895 217.51L31.22 216.924L32.3418 219.11C31.461 218.799 30.6838 218.244 30.0895 217.505V217.51ZM36.3934 218.852C35.6607 219.232 34.8738 219.425 34.055 219.425C34.0162 219.425 33.9804 219.418 33.9417 219.417L33.8352 219.209L40.0704 215.984L40.4623 216.745L36.3934 218.855V218.852ZM45.9144 213.922L41.8445 216.029L41.4535 215.267L47.6876 212.041L47.7854 212.228C47.3121 212.928 46.6868 213.522 45.9144 213.92V213.922ZM48.4425 210.918C48.3496 211.209 48.2248 211.483 48.0854 211.749L47.8957 211.379L42.3855 214.233L42.3846 214.231L40.7546 215.075L40.5475 214.671L42.9266 213.437L41.8842 211.405L42.8588 210.899L48.4977 207.981C48.7639 208.944 48.7503 209.955 48.4425 210.918V210.918Z" fill="black"/>
<path d="M87.7335 215.497L87.2843 214.619C87.2195 214.492 87.2291 214.371 87.3898 214.289C87.5505 214.206 87.6532 214.268 87.718 214.395L88.2785 215.493C88.3589 215.65 88.2863 215.764 88.174 215.822L86.4643 216.703C86.352 216.761 86.2165 216.754 86.1362 216.596C86.0558 216.441 86.1294 216.326 86.2417 216.267L86.8787 215.938L85.5931 213.42L84.9551 213.749C84.8428 213.808 84.7073 213.8 84.6279 213.644C84.5485 213.487 84.6201 213.373 84.7334 213.313L85.8041 212.762L87.3134 215.715L87.7335 215.492V215.497Z" fill="#231815"/>
<path d="M90.8578 213.893L90.4076 213.014C90.3438 212.888 90.3534 212.768 90.5132 212.685C90.6739 212.603 90.7765 212.665 90.8414 212.789L91.4019 213.887C91.4822 214.045 91.4096 214.159 91.2964 214.219L89.5877 215.098C89.4754 215.157 89.3398 215.15 89.2595 214.993C89.1791 214.836 89.2527 214.721 89.365 214.662L90.002 214.333L88.7154 211.815L88.0775 212.146C87.9652 212.205 87.8296 212.198 87.7493 212.042C87.6699 211.885 87.7425 211.769 87.8548 211.711L88.9255 211.16L90.4348 214.113L90.8578 213.899V213.893Z" fill="#231815"/>
<path d="M92.8454 213.222C92.8406 213.341 92.8203 213.429 92.7109 213.486C92.6024 213.542 92.4475 213.506 92.3895 213.391C92.3469 213.309 92.3614 213.209 92.3691 213.116L92.5647 209.488C92.5724 209.375 92.585 209.269 92.6934 209.214C92.8057 209.156 92.9529 209.196 93.01 209.311C93.0458 209.378 93.0507 209.443 93.0497 209.504L92.8454 213.218V213.222Z" fill="#231815"/>
<path d="M97.1085 210.674L96.6583 209.795C96.5944 209.669 96.6031 209.549 96.7638 209.466C96.9245 209.384 97.0262 209.445 97.092 209.572L97.6525 210.67C97.7329 210.827 97.6603 210.941 97.547 211L95.8383 211.88C95.7261 211.939 95.5905 211.931 95.5102 211.773C95.4298 211.618 95.5024 211.502 95.6157 211.444L96.2537 211.115L94.9671 208.598L94.3291 208.926C94.2168 208.985 94.0813 208.978 94.0009 208.82C93.9215 208.665 93.9932 208.55 94.1064 208.491L95.1771 207.94L96.6864 210.892L97.1114 210.678L97.1085 210.674Z" fill="#231815"/>
<path d="M97.6692 207.203C97.7186 207.3 97.7031 207.463 97.5647 207.534C97.4253 207.605 97.2849 207.522 97.2365 207.428L97.1252 207.21C97.0758 207.113 97.0913 206.95 97.2307 206.878L99.1562 205.885L99.8019 207.15C99.8794 207.301 99.8929 207.318 99.8252 207.485L99.4863 208.324C99.4254 208.482 99.4205 208.495 99.4989 208.648L99.9297 209.493C100.001 209.633 99.981 209.743 99.8252 209.824C99.6693 209.904 99.5677 209.857 99.497 209.719L98.9607 208.669C98.8871 208.525 98.8852 208.51 98.9442 208.358L99.2782 207.532C99.3566 207.33 99.3498 207.341 99.2521 207.148L98.9452 206.546L97.6867 207.217L97.6692 207.203Z" fill="#231815"/>
<path d="M87.4005 215.351L86.9513 214.472C86.8864 214.346 86.8961 214.225 87.0568 214.143C87.2175 214.06 87.3201 214.122 87.385 214.248L87.9455 215.346C88.0259 215.503 87.9533 215.617 87.841 215.676L86.1313 216.556C86.019 216.616 85.8835 216.608 85.8031 216.45C85.7228 216.294 85.7964 216.179 85.9087 216.121L86.5457 215.791L85.26 213.274L84.6221 213.602C84.5098 213.662 84.3742 213.654 84.2949 213.497C84.2155 213.341 84.2871 213.226 84.4004 213.168L85.4711 212.615L86.9803 215.568L87.4005 215.345V215.351Z" fill="white"/>
<path d="M90.5248 213.737L90.0746 212.858C90.0108 212.732 90.0204 212.612 90.1802 212.53C90.3409 212.447 90.4435 212.509 90.5083 212.635L91.0689 213.732C91.1492 213.89 91.0766 214.004 90.9633 214.063L89.2547 214.943C89.1424 215.001 89.0068 214.995 88.9265 214.837C88.8461 214.681 88.9197 214.565 89.032 214.506L89.669 214.178L88.3824 211.66L87.7444 211.989C87.6322 212.047 87.4966 212.041 87.4163 211.884C87.3369 211.727 87.4095 211.612 87.5218 211.553L88.5925 210.999L90.1018 213.952L90.5248 213.729V213.737Z" fill="white"/>
<path d="M92.5134 213.076C92.5086 213.195 92.4882 213.283 92.3788 213.34C92.2704 213.396 92.1155 213.36 92.0574 213.246C92.0148 213.163 92.0294 213.063 92.0371 212.971L92.2326 209.342C92.2404 209.229 92.253 209.123 92.3614 209.068C92.4737 209.01 92.6209 209.05 92.678 209.165C92.7138 209.232 92.7186 209.297 92.7177 209.359L92.5134 213.073V213.076Z" fill="white"/>
<path d="M96.7725 210.519L96.3224 209.641C96.2585 209.513 96.2672 209.395 96.4279 209.31C96.5886 209.228 96.6903 209.29 96.7561 209.416L97.3166 210.514C97.397 210.671 97.3244 210.785 97.2111 210.844L95.5024 211.724C95.3901 211.783 95.2546 211.775 95.1742 211.618C95.0939 211.463 95.1665 211.347 95.2798 211.288L95.9177 210.959L94.6311 208.442L93.9932 208.77C93.8809 208.83 93.7453 208.822 93.665 208.665C93.5856 208.51 93.6572 208.394 93.7705 208.335L94.8412 207.784L96.3505 210.738L96.7784 210.524L96.7725 210.519Z" fill="white"/>
<path d="M97.3304 207.047C97.3797 207.144 97.3643 207.306 97.2258 207.377C97.0864 207.449 96.946 207.366 96.8976 207.271L96.7863 207.053C96.7369 206.956 96.7524 206.794 96.8918 206.723L98.8174 205.73L99.4631 206.994C99.5405 207.146 99.5541 207.163 99.4863 207.33L99.1475 208.169C99.0865 208.326 99.0816 208.341 99.1601 208.492L99.5909 209.337C99.6625 209.478 99.6422 209.587 99.4863 209.668C99.3304 209.749 99.2288 209.701 99.1581 209.563L98.6218 208.514C98.5482 208.37 98.5463 208.354 98.6053 208.203L98.9393 207.376C99.0178 207.175 99.011 207.186 98.9132 206.992L98.6063 206.39L97.3575 207.042L97.3304 207.047Z" fill="white"/>
<path d="M120.782 212.151L149.059 198.023L144.223 188.255L115.946 202.383L120.782 212.151Z" fill="white"/>
<path d="M131.071 205.638L128.69 197.722L130.675 196.731L133.056 204.655L131.071 205.638Z" fill="#00249F"/>
<path d="M136.714 193.94C136.249 193.988 135.554 194.136 134.786 194.521C132.829 195.5 131.94 197.178 132.63 198.603C133.138 199.658 134.425 199.746 135.348 199.72C136.296 199.692 136.669 199.789 136.823 200.112C137.059 200.604 136.561 201.133 135.992 201.417C135.198 201.812 134.722 201.913 133.937 201.965L133.624 201.978L134.155 203.751C134.719 203.724 135.662 203.472 136.554 203.038C138.636 201.998 139.503 200.344 138.77 198.82C138.366 197.986 137.525 197.617 136.124 197.666C135.264 197.675 134.729 197.66 134.564 197.316C134.414 197.013 134.612 196.51 135.387 196.121C136.03 195.787 136.571 195.695 137.009 195.659L137.229 195.654L136.696 193.953" fill="#00249F"/>
<path d="M141.708 191.227L140.177 191.991C139.703 192.228 139.412 192.538 139.439 193.115L139.81 201.277L141.889 200.239C141.889 200.239 141.783 199.168 141.762 198.933C141.99 198.82 144.012 197.814 144.302 197.668C144.486 197.893 145.084 198.641 145.084 198.641L146.922 197.724L141.705 191.219M141.589 197.151C141.544 196.648 141.367 194.715 141.367 194.715C141.365 194.739 141.322 194.21 141.286 193.886L141.73 194.448C141.73 194.448 142.974 196.002 143.233 196.328L141.588 197.145L141.589 197.151Z" fill="#00249F"/>
<path d="M125.796 199.181L126.322 205.129L125.614 204.22C124.675 203.232 122.925 202.533 121.354 202.528L126.29 208.028L128.385 206.978L127.896 198.131L125.796 199.181" fill="#00249F"/>
<path d="M122.05 201.038L118.856 202.637L118.905 202.8C121.69 202.163 124.057 202.802 125.609 204.216L123.253 201.206C122.905 200.808 122.488 200.847 122.043 201.041" fill="#FFA000"/>
<path d="M75.4266 218.648L75.3288 218.443L76.0665 218.089L76.3734 218.739C76.3037 218.883 76.2185 219.007 76.1207 219.11C76.021 219.213 75.9087 219.296 75.7819 219.357C75.6115 219.439 75.4382 219.477 75.264 219.469C75.0887 219.463 74.9329 219.408 74.7964 219.302C74.6579 219.196 74.5495 219.059 74.4682 218.886C74.3879 218.716 74.3472 218.541 74.3482 218.358C74.3491 218.176 74.3985 218.018 74.4972 217.884C74.597 217.749 74.7325 217.64 74.9058 217.556C75.0316 217.495 75.1555 217.462 75.2766 217.455C75.3976 217.448 75.505 217.466 75.597 217.512C75.6899 217.558 75.779 217.632 75.8652 217.735L75.6832 217.892C75.6154 217.816 75.5496 217.761 75.4866 217.728C75.4247 217.696 75.3482 217.681 75.263 217.686C75.1759 217.69 75.0887 217.712 75.0006 217.754C74.8961 217.804 74.8119 217.864 74.7499 217.933C74.6889 218.002 74.6473 218.075 74.625 218.152C74.6028 218.226 74.5931 218.3 74.597 218.375C74.6037 218.506 74.6376 218.633 74.6976 218.76C74.7712 218.915 74.8593 219.032 74.9629 219.111C75.0665 219.192 75.1807 219.232 75.3075 219.234C75.4344 219.236 75.5544 219.21 75.6696 219.154C75.7693 219.106 75.8574 219.042 75.9339 218.958C76.0104 218.873 76.0626 218.798 76.0917 218.732L75.9368 218.405L75.4266 218.648V218.648Z" fill="white"/>
<path d="M76.3548 217.997C76.2173 217.707 76.1873 217.442 76.2638 217.203C76.3413 216.965 76.5029 216.787 76.7478 216.669C76.9086 216.592 77.0712 216.563 77.2367 216.577C77.4033 216.592 77.5514 216.653 77.685 216.759C77.8186 216.865 77.927 217.005 78.0093 217.181C78.0945 217.359 78.1332 217.533 78.1283 217.708C78.1235 217.882 78.0732 218.037 77.9764 218.172C77.8805 218.308 77.7566 218.41 77.6056 218.482C77.441 218.561 77.2755 218.589 77.1089 218.573C76.9424 218.556 76.7924 218.494 76.6607 218.389C76.53 218.292 76.4274 218.165 76.3548 218.009V217.997ZM76.5949 217.89C76.6946 218.1 76.8292 218.239 76.9996 218.309C77.1699 218.374 77.3403 218.368 77.5107 218.288C77.684 218.204 77.7973 218.074 77.8515 217.899C77.9067 217.723 77.8795 217.522 77.7721 217.297C77.7043 217.155 77.6211 217.041 77.5233 216.958C77.4255 216.875 77.3161 216.827 77.1961 216.813C77.076 216.798 76.9589 216.819 76.8447 216.874C76.6811 216.952 76.5678 217.077 76.5029 217.245C76.439 217.42 76.469 217.634 76.5949 217.897V217.89Z" fill="white"/>
<path d="M78.2457 217.093C78.1082 216.802 78.0782 216.538 78.1556 216.3C78.2331 216.061 78.3948 215.882 78.6397 215.766C78.8004 215.689 78.963 215.659 79.1286 215.673C79.2951 215.689 79.4442 215.747 79.5768 215.854C79.7094 215.96 79.8188 216.101 79.9011 216.276C79.9853 216.455 80.025 216.63 80.0202 216.803C80.0153 216.979 79.965 217.132 79.8682 217.268C79.7723 217.403 79.6484 217.506 79.4974 217.578C79.3338 217.656 79.1673 217.685 79.0008 217.669C78.8343 217.65 78.6842 217.59 78.5525 217.485C78.4209 217.378 78.3183 217.251 78.2457 217.095V217.093ZM78.4857 216.986C78.5855 217.196 78.72 217.335 78.8904 217.404C79.0608 217.47 79.2312 217.465 79.4016 217.383C79.5749 217.301 79.6881 217.169 79.7423 216.994C79.7965 216.818 79.7704 216.618 79.6629 216.392C79.5952 216.25 79.5119 216.136 79.4132 216.055C79.3154 215.972 79.206 215.922 79.086 215.909C78.9659 215.893 78.8488 215.914 78.7345 215.97C78.5709 216.048 78.4577 216.172 78.3928 216.341C78.3299 216.516 78.3599 216.73 78.4857 216.992V216.986Z" fill="white"/>
<path d="M80.6124 217.005L79.7827 215.256L80.3829 214.969C80.5185 214.905 80.6259 214.864 80.7043 214.845C80.8147 214.822 80.9212 214.823 81.019 214.849C81.1477 214.882 81.2639 214.95 81.3665 215.049C81.4691 215.148 81.5582 215.275 81.6318 215.432C81.6947 215.566 81.7353 215.691 81.7528 215.809C81.7702 215.926 81.7712 216.03 81.7537 216.12C81.7373 216.211 81.7102 216.289 81.6715 216.354C81.6318 216.42 81.5766 216.482 81.5049 216.54C81.4333 216.599 81.3452 216.653 81.2407 216.704L80.6124 217.005V217.005ZM80.744 216.694L81.1158 216.514C81.231 216.46 81.3162 216.407 81.3704 216.353C81.4265 216.3 81.4633 216.246 81.4836 216.186C81.5117 216.107 81.5195 216.011 81.5059 215.905C81.4924 215.799 81.4536 215.68 81.3917 215.546C81.3046 215.363 81.2087 215.238 81.1022 215.167C80.9957 215.098 80.8912 215.066 80.7905 215.073C80.7179 215.079 80.6124 215.114 80.4759 215.179L80.1099 215.356L80.744 216.708V216.694Z" fill="white"/>
<path d="M76.4452 221.76L75.7134 220.217L75.1403 220.491L75.0415 220.285L76.422 219.623L76.5198 219.829L75.9438 220.106L76.6756 221.648L76.4452 221.765V221.76Z" fill="white"/>
<path d="M77.6768 221.167L76.8472 219.418L77.0776 219.307L77.4193 220.025L78.3245 219.592L77.9837 218.874L78.2141 218.766L79.0438 220.514L78.8134 220.624L78.4222 219.798L77.5171 220.232L77.9082 221.057L77.6768 221.154V221.167Z" fill="white"/>
<path d="M79.6119 220.243L78.7832 218.494L79.5548 218.125C79.7106 218.051 79.8355 218.009 79.9314 218.002C80.0272 217.994 80.1172 218.02 80.2044 218.076C80.2905 218.133 80.3563 218.208 80.4018 218.304C80.4609 218.427 80.4706 218.551 80.4309 218.676C80.3912 218.799 80.2934 218.911 80.1376 219.016C80.2121 219.016 80.2721 219.024 80.3176 219.036C80.4144 219.067 80.5151 219.113 80.6197 219.178L81.1473 219.509L80.8578 219.648L80.4541 219.396C80.337 219.323 80.244 219.268 80.1734 219.233C80.1037 219.199 80.0456 219.178 80.0001 219.172C79.9556 219.167 79.913 219.168 79.8733 219.176C79.8442 219.183 79.8007 219.2 79.7406 219.23L79.4734 219.358L79.8413 220.134L79.6119 220.261V220.243ZM79.3786 219.154L79.8733 218.918C79.9788 218.866 80.0562 218.816 80.1056 218.768C80.155 218.718 80.184 218.661 80.1908 218.598C80.1985 218.534 80.1889 218.474 80.1627 218.418C80.124 218.334 80.062 218.28 79.9769 218.256C79.8917 218.232 79.7842 218.249 79.6554 218.313L79.1046 218.576L79.3786 219.14V219.154Z" fill="white"/>
<path d="M81.8601 217.014L82.0906 216.904L82.5698 217.915C82.653 218.091 82.6995 218.239 82.7092 218.362C82.7188 218.485 82.6879 218.603 82.6143 218.717C82.5427 218.831 82.4216 218.929 82.2542 219.009C82.0906 219.088 81.9444 219.123 81.8137 219.116C81.683 219.108 81.5707 219.062 81.4749 218.975C81.379 218.89 81.289 218.754 81.2009 218.57L80.7217 217.559L80.9521 217.448L81.4313 218.457C81.5029 218.609 81.5707 218.716 81.6327 218.773C81.6946 218.832 81.7701 218.864 81.8563 218.87C81.9434 218.879 82.0363 218.856 82.1351 218.809C82.3045 218.728 82.4071 218.631 82.4429 218.52C82.4788 218.408 82.4439 218.242 82.3403 218.022L81.8601 217.001V217.014Z" fill="white"/>
<path d="M82.8247 216.713L84.271 216.966L83.6021 218.279L82.8247 216.713Z" fill="white"/>
<path opacity="0.4" d="M133.558 151.963L131.159 147.146L116.072 147.529C116.072 147.529 108.026 151.722 106.424 152.39C104.821 153.058 100.834 153.502 99.7954 153.397C96.1252 153.029 97.5074 153.405 93.149 151.735C88.7906 150.065 87.6059 146.421 87.422 144.764C87.2381 143.107 87.422 139.277 87.422 139.277L80.2142 142.925C80.2142 142.925 78.3307 147.284 81.3214 152.142C84.3122 156.998 87.1897 160.019 97.9671 160.669C108.749 161.321 133.566 151.957 133.566 151.957L133.558 151.963Z" fill="url(#paint3_radial_38_163)"/>
<path d="M36.7709 227.681L34.3318 228.944C34.1334 229.046 33.8904 228.958 33.7956 228.772L32.8596 226.949C32.7638 226.764 32.8325 226.512 33.031 226.409L35.8243 224.963C36.0227 224.86 36.2666 224.95 36.3615 225.136L38.8392 229.963C38.9389 230.156 38.8809 230.392 38.6679 230.503L38.3137 230.687C38.1007 230.797 37.8752 230.707 37.7765 230.514C37.6671 230.3 37.7426 230.081 37.9478 229.974L36.7709 227.67V227.681ZM36.406 226.971L35.8359 225.859L33.752 226.937L34.3221 228.05L36.406 226.97V226.971Z" fill="black"/>
<path d="M41.8744 225.036L39.4353 226.299C39.2369 226.403 38.994 226.314 38.8991 226.127L37.9632 224.304C37.8673 224.12 37.9361 223.868 38.1345 223.764L40.9278 222.319C41.1262 222.216 41.3701 222.306 41.465 222.492L43.9428 227.32C44.0415 227.512 43.9834 227.748 43.7714 227.859L43.4172 228.042C43.2043 228.152 42.9787 228.062 42.88 227.87C42.7706 227.656 42.8461 227.436 43.0513 227.329L41.8744 225.034V225.036ZM41.5095 224.327L40.9394 223.214L38.8556 224.293L39.4256 225.406L41.5095 224.327Z" fill="black"/>
<path d="M46.9774 222.401L44.5383 223.664C44.3399 223.766 44.097 223.678 44.0021 223.492L43.0662 221.669C42.9704 221.484 43.0391 221.232 43.2375 221.129L46.0308 219.684C46.2292 219.581 46.4731 219.67 46.568 219.857L49.0458 224.684C49.1445 224.876 49.0864 225.113 48.8745 225.224L48.5202 225.407C48.3073 225.517 48.0818 225.427 47.983 225.234C47.8737 225.02 47.9492 224.801 48.1544 224.694L46.9774 222.399V222.401ZM46.6125 221.682L46.0424 220.569L43.9586 221.649L44.5287 222.761L46.6125 221.682Z" fill="black"/>
<path d="M52.0809 219.756L49.6419 221.02C49.4434 221.122 49.2005 221.033 49.1057 220.847L48.1697 219.024C48.0739 218.84 48.1426 218.588 48.341 218.485L51.1343 217.038C51.3328 216.936 51.5767 217.025 51.6715 217.211L54.1493 222.039C54.248 222.231 54.1899 222.467 53.978 222.578L53.6237 222.762C53.4108 222.872 53.1853 222.782 53.0866 222.589C52.9772 222.375 53.0517 222.156 53.2579 222.049L52.0809 219.755V219.756ZM51.716 219.047L51.1459 217.934L49.0621 219.013L49.6322 220.125L51.716 219.046V219.047Z" fill="black"/>
<path d="M62.287 214.467L59.848 215.73C59.6496 215.832 59.4066 215.743 59.3118 215.558L58.3758 213.734C58.281 213.55 58.3487 213.298 58.5471 213.195L61.3405 211.749C61.5389 211.647 61.7828 211.736 61.8786 211.922L64.3564 216.75C64.4551 216.942 64.397 217.179 64.1841 217.289L63.8298 217.472C63.6169 217.582 63.3914 217.493 63.2927 217.3C63.1833 217.085 63.2588 216.866 63.464 216.76L62.287 214.474V214.467ZM61.9222 213.757L61.3521 212.644L59.2682 213.724L59.8383 214.836L61.9222 213.757Z" fill="black"/>
<path d="M67.3901 211.822L64.952 213.085C64.7536 213.187 64.5097 213.099 64.4158 212.913L63.4798 211.09C63.385 210.905 63.4527 210.653 63.6511 210.55L66.4435 209.104C66.6419 209.001 66.8858 209.09 66.9816 209.276L69.4594 214.104C69.5581 214.296 69.5001 214.534 69.2871 214.645L68.9329 214.827C68.7209 214.937 68.4944 214.848 68.3957 214.654C68.2863 214.44 68.3618 214.222 68.567 214.115L67.3901 211.82V211.822ZM67.0252 211.112L66.4551 210L64.3713 211.079L64.9413 212.19L67.0252 211.111V211.112Z" fill="black"/>
<path d="M72.4926 209.187L70.0545 210.45C69.8561 210.552 69.6122 210.463 69.5183 210.278L68.5824 208.454C68.4875 208.27 68.5553 208.018 68.7537 207.915L71.547 206.468C71.7454 206.366 71.9893 206.455 72.0842 206.641L74.562 211.469C74.6607 211.661 74.6026 211.898 74.3906 212.008L74.0354 212.192C73.8235 212.302 73.597 212.213 73.4982 212.019C73.3889 211.805 73.4644 211.586 73.6696 211.479L72.4926 209.175V209.187ZM72.1277 208.467L71.5576 207.355L69.4738 208.433L70.0439 209.545L72.1277 208.466V208.467Z" fill="black"/>
<path d="M77.5961 206.542L75.1571 207.805C74.9586 207.908 74.7147 207.82 74.6209 207.634L73.6849 205.811C73.5901 205.626 73.6578 205.374 73.8562 205.27L76.6495 203.824C76.848 203.722 77.0919 203.811 77.1867 203.997L79.6645 208.825C79.7632 209.018 79.7051 209.254 79.4932 209.365L79.1389 209.547C78.926 209.657 78.7005 209.568 78.6018 209.375C78.4924 209.161 78.5679 208.942 78.7731 208.835L77.5961 206.54V206.542ZM77.2312 205.832L76.6612 204.72L74.5773 205.799L75.1474 206.911L77.2312 205.832Z" fill="black"/>
<path d="M87.8025 201.252L85.3644 202.515C85.1659 202.617 84.922 202.529 84.8272 202.343L83.8912 200.52C83.7964 200.335 83.8651 200.083 84.0635 199.98L86.8559 198.533C87.0543 198.431 87.2982 198.521 87.393 198.706L89.8708 203.534C89.9695 203.727 89.9115 203.964 89.6995 204.074L89.3453 204.258C89.1333 204.368 88.9068 204.278 88.8081 204.085C88.6987 203.871 88.7742 203.652 88.9794 203.545L87.8025 201.24V201.252ZM87.4376 200.542L86.8675 199.43L84.7836 200.508L85.3547 201.621L87.4376 200.541V200.542Z" fill="black"/>
<path d="M92.9065 198.607L90.4684 199.87C90.2699 199.973 90.026 199.885 89.9312 199.699L88.9952 197.876C88.9004 197.691 88.9691 197.439 89.1675 197.336L91.9608 195.89C92.1593 195.787 92.4032 195.877 92.498 196.063L94.9758 200.89C95.0745 201.083 95.0164 201.319 94.8045 201.43L94.4493 201.614C94.2373 201.724 94.0108 201.634 93.9121 201.441C93.8027 201.227 93.8782 201.008 94.0834 200.901L92.9065 198.597V198.607ZM92.5416 197.897L91.9715 196.784L89.8876 197.863L90.4587 198.976L92.5416 197.896V197.897Z" fill="black"/>
<path d="M98.0077 195.972L95.5687 197.235C95.3703 197.338 95.1263 197.25 95.0325 197.063L94.0965 195.24C94.0017 195.056 94.0694 194.803 94.2678 194.7L97.0612 193.254C97.2596 193.152 97.5035 193.242 97.5983 193.427L100.076 198.255C100.175 198.448 100.117 198.684 99.9048 198.795L99.5505 198.978C99.3376 199.088 99.1121 198.998 99.0124 198.805C98.903 198.592 98.9785 198.372 99.1847 198.265L98.0135 195.97L98.0077 195.972ZM97.6399 195.253L97.0689 194.14L94.985 195.22L95.5561 196.332L97.6399 195.253Z" fill="black"/>
<path d="M103.109 193.327L100.67 194.59C100.471 194.692 100.227 194.604 100.134 194.418L99.1976 192.595C99.1027 192.41 99.1705 192.158 99.3689 192.055L102.162 190.609C102.361 190.506 102.605 190.596 102.699 190.782L105.177 195.609C105.277 195.802 105.219 196.039 105.006 196.15L104.652 196.333C104.439 196.443 104.213 196.353 104.113 196.16C104.004 195.946 104.08 195.727 104.286 195.62L103.105 193.325L103.109 193.327ZM102.751 192.617L102.18 191.505L100.096 192.583L100.666 193.697L102.747 192.617H102.751Z" fill="black"/>
<path d="M113.32 188.038L110.881 189.301C110.682 189.404 110.438 189.315 110.344 189.13L109.409 187.306C109.314 187.122 109.381 186.87 109.58 186.766L112.373 185.32C112.572 185.218 112.815 185.307 112.91 185.493L115.388 190.321C115.488 190.513 115.43 190.75 115.217 190.86L114.863 191.043C114.65 191.153 114.424 191.064 114.325 190.871C114.216 190.657 114.291 190.437 114.497 190.33L113.316 188.045L113.32 188.038ZM112.952 187.328L112.381 186.215L110.297 187.295L110.867 188.407L112.948 187.328H112.952Z" fill="black"/>
<path d="M118.421 185.393L115.982 186.656C115.783 186.758 115.54 186.669 115.445 186.484L114.51 184.661C114.414 184.476 114.482 184.224 114.681 184.121L117.474 182.675C117.673 182.573 117.917 182.661 118.011 182.848L120.489 187.676C120.589 187.867 120.531 188.105 120.318 188.216L119.964 188.398C119.751 188.508 119.525 188.419 119.426 188.225C119.317 188.011 119.393 187.793 119.598 187.686L118.407 185.391L118.421 185.393ZM118.063 184.683L117.492 183.571L115.408 184.65L115.978 185.762L118.059 184.683H118.063Z" fill="black"/>
<path d="M123.521 182.748L121.082 184.011C120.884 184.113 120.641 184.025 120.546 183.839L119.61 182.016C119.514 181.831 119.583 181.579 119.781 181.476L122.575 180.029C122.773 179.927 123.017 180.017 123.112 180.202L125.59 185.03C125.688 185.223 125.63 185.459 125.418 185.57L125.064 185.754C124.851 185.863 124.626 185.774 124.527 185.58C124.418 185.367 124.493 185.148 124.698 185.041L123.517 182.746L123.521 182.748ZM123.163 182.038L122.593 180.926L120.509 182.004L121.079 183.116L123.16 182.037L123.163 182.038Z" fill="black"/>
<path d="M128.632 180.113L126.193 181.376C125.994 181.478 125.751 181.39 125.656 181.204L124.72 179.381C124.625 179.196 124.693 178.944 124.892 178.84L127.685 177.394C127.884 177.292 128.127 177.381 128.222 177.567L130.7 182.395C130.799 182.587 130.741 182.824 130.529 182.935L130.175 183.117C129.962 183.227 129.736 183.138 129.637 182.945C129.528 182.731 129.603 182.513 129.809 182.405L128.628 180.11L128.632 180.113ZM128.264 179.403L127.694 178.292L125.61 179.37L126.18 180.482L128.261 179.403H128.264Z" fill="black"/>
<path d="M36.1254 227.322L33.6863 228.585C33.4879 228.687 33.2449 228.598 33.1501 228.413L32.2141 226.589C32.1183 226.405 32.187 226.153 32.3855 226.05L35.1788 224.603C35.3772 224.501 35.6211 224.59 35.7159 224.776L38.1937 229.604C38.2934 229.796 38.2353 230.033 38.0224 230.143L37.6682 230.327C37.4552 230.437 37.2297 230.348 37.131 230.154C37.0216 229.94 37.0971 229.721 37.3023 229.614L36.1254 227.32V227.322ZM35.7605 226.612L35.1904 225.499L33.1065 226.578L33.6766 227.69L35.7605 226.611V226.612Z" fill="white"/>
<path d="M41.2289 224.677L38.7898 225.94C38.5914 226.043 38.3485 225.954 38.2536 225.768L37.3177 223.944C37.2218 223.761 37.2906 223.508 37.489 223.405L40.2823 221.959C40.4807 221.857 40.7246 221.946 40.8195 222.132L43.2972 226.96C43.396 227.152 43.3379 227.389 43.1259 227.499L42.7717 227.682C42.5588 227.792 42.3332 227.703 42.2345 227.51C42.1251 227.296 42.2006 227.076 42.4058 226.969L41.2289 224.684V224.677ZM40.864 223.967L40.2939 222.854L38.21 223.934L38.7801 225.046L40.864 223.967Z" fill="white"/>
<path d="M46.3319 222.032L43.8928 223.295C43.6944 223.397 43.4515 223.309 43.3566 223.123L42.4207 221.3C42.3249 221.115 42.3936 220.863 42.592 220.76L45.3853 219.314C45.5837 219.212 45.8276 219.3 45.9225 219.487L48.4003 224.315C48.499 224.506 48.4409 224.744 48.229 224.855L47.8747 225.037C47.6618 225.147 47.4363 225.058 47.3375 224.864C47.2282 224.65 47.3037 224.432 47.5089 224.325L46.3319 222.03V222.032ZM45.967 221.322L45.3969 220.21L43.3131 221.289L43.8832 222.401L45.967 221.322Z" fill="white"/>
<path d="M51.4354 219.387L48.9964 220.65C48.7979 220.752 48.555 220.664 48.4601 220.478L47.5242 218.655C47.4284 218.47 47.4971 218.218 47.6955 218.115L50.4888 216.668C50.6872 216.566 50.9312 216.656 51.026 216.841L53.5038 221.669C53.6025 221.862 53.5444 222.098 53.3325 222.209L52.9782 222.393C52.7653 222.502 52.5398 222.413 52.441 222.219C52.3317 222.006 52.4062 221.787 52.6124 221.68L51.4354 219.385V219.387ZM51.0705 218.677L50.5004 217.565L48.4166 218.643L48.9867 219.755L51.0705 218.676V218.677Z" fill="white"/>
<path d="M61.6415 214.107L59.2025 215.37C59.0041 215.472 58.7611 215.384 58.6663 215.198L57.7303 213.375C57.6355 213.19 57.7032 212.938 57.9016 212.835L60.6949 211.389C60.8934 211.287 61.1373 211.376 61.2331 211.562L63.7109 216.39C63.8096 216.583 63.7515 216.819 63.5386 216.93L63.1843 217.113C62.9714 217.222 62.7459 217.133 62.6472 216.94C62.5378 216.726 62.6133 216.507 62.8185 216.4L61.6415 214.105V214.107ZM61.2766 213.397L60.7066 212.285L58.6227 213.364L59.1928 214.476L61.2766 213.397Z" fill="white"/>
<path d="M66.7446 211.462L64.3065 212.725C64.1081 212.827 63.8641 212.739 63.7703 212.553L62.8343 210.73C62.7395 210.545 62.8072 210.293 63.0056 210.19L65.798 208.744C65.9964 208.641 66.2403 208.731 66.3361 208.916L68.8139 213.744C68.9126 213.937 68.8546 214.174 68.6416 214.285L68.2874 214.468C68.0754 214.578 67.8489 214.488 67.7502 214.295C67.6408 214.081 67.7163 213.862 67.9215 213.755L66.7446 211.45V211.462ZM66.3797 210.752L65.8096 209.64L63.7257 210.719L64.2958 211.831L66.3797 210.751V210.752Z" fill="white"/>
<path d="M71.8471 208.817L69.409 210.08C69.2106 210.182 68.9667 210.094 68.8728 209.908L67.9369 208.085C67.842 207.9 67.9098 207.648 68.1082 207.545L70.9015 206.098C71.0999 205.996 71.3438 206.086 71.4387 206.272L73.9164 211.099C74.0152 211.292 73.9571 211.528 73.7451 211.639L73.3899 211.823C73.1779 211.933 72.9515 211.843 72.8527 211.65C72.7434 211.436 72.8189 211.217 73.0241 211.11L71.8471 208.806V208.817ZM71.4822 208.107L70.9121 206.995L68.8283 208.073L69.3984 209.186L71.4822 208.106V208.107Z" fill="white"/>
<path d="M76.9506 206.172L74.5116 207.435C74.3131 207.539 74.0692 207.45 73.9753 207.264L73.0394 205.441C72.9445 205.256 73.0123 205.005 73.2107 204.9L76.004 203.455C76.2024 203.352 76.4464 203.442 76.5412 203.628L79.019 208.455C79.1177 208.648 79.0596 208.884 78.8477 208.995L78.4934 209.178C78.2805 209.288 78.055 209.198 77.9562 209.006C77.8469 208.792 77.9224 208.572 78.1276 208.465L76.9506 206.17V206.172ZM76.5857 205.463L76.0156 204.35L73.9318 205.429L74.5019 206.542L76.5857 205.463Z" fill="white"/>
<path d="M87.157 200.892L84.7188 202.156C84.5204 202.258 84.2765 202.169 84.1817 201.983L83.2457 200.16C83.1509 199.975 83.2196 199.724 83.418 199.621L86.2104 198.174C86.4088 198.072 86.6527 198.161 86.7475 198.347L89.2253 203.175C89.324 203.367 89.266 203.604 89.054 203.714L88.6998 203.898C88.4878 204.008 88.2613 203.918 88.1626 203.725C88.0532 203.511 88.1287 203.292 88.3339 203.185L87.157 200.891V200.892ZM86.7921 200.173L86.222 199.06L84.1381 200.139L84.7092 201.251L86.7921 200.172V200.173Z" fill="white"/>
<path d="M92.2605 198.248L89.8224 199.511C89.624 199.614 89.38 199.525 89.2852 199.34L88.3492 197.516C88.2544 197.332 88.3231 197.08 88.5215 196.977L91.3148 195.53C91.5133 195.428 91.7572 195.517 91.852 195.703L94.3298 200.531C94.4285 200.723 94.3705 200.959 94.1585 201.07L93.8033 201.254C93.5913 201.364 93.3648 201.275 93.2661 201.081C93.1567 200.867 93.2322 200.648 93.4374 200.541L92.2605 198.247V198.248ZM91.8956 197.538L91.3255 196.424L89.2416 197.504L89.8127 198.616L91.8956 197.546V197.538Z" fill="white"/>
<path d="M97.3691 195.603L94.93 196.866C94.7316 196.969 94.4877 196.88 94.3938 196.694L93.4579 194.87C93.363 194.687 93.4308 194.434 93.6292 194.331L96.4225 192.885C96.6209 192.783 96.8648 192.872 96.9597 193.058L99.4374 197.886C99.5362 198.078 99.4781 198.315 99.2661 198.425L98.9119 198.608C98.6989 198.718 98.4734 198.629 98.3737 198.435C98.2644 198.222 98.3399 198.002 98.546 197.896L97.3749 195.601L97.3691 195.603ZM97.0013 194.893L96.4302 193.78L94.3464 194.86L94.9174 195.972L97.0013 194.893Z" fill="white"/>
<path d="M102.47 192.958L100.031 194.221C99.8327 194.323 99.5888 194.235 99.4949 194.049L98.5589 192.226C98.4641 192.041 98.5318 191.789 98.7302 191.686L101.524 190.24C101.722 190.137 101.966 190.226 102.061 190.412L104.539 195.24C104.638 195.433 104.58 195.67 104.367 195.781L104.013 195.963C103.8 196.073 103.574 195.984 103.475 195.79C103.365 195.576 103.441 195.358 103.647 195.251L102.466 192.956L102.47 192.958ZM102.102 192.248L101.531 191.136L99.4474 192.214L100.018 193.327L102.098 192.248H102.102Z" fill="white"/>
<path d="M112.671 187.678L110.232 188.941C110.034 189.044 109.79 188.956 109.696 188.77L108.76 186.947C108.665 186.762 108.733 186.51 108.931 186.406L111.725 184.96C111.923 184.858 112.167 184.947 112.262 185.133L114.74 189.961C114.839 190.154 114.781 190.39 114.568 190.501L114.214 190.683C114.001 190.793 113.776 190.704 113.677 190.511C113.568 190.297 113.642 190.078 113.848 189.971L112.658 187.676L112.671 187.678ZM112.313 186.958L111.742 185.846L109.658 186.925L110.228 188.038L112.309 186.958H112.313Z" fill="white"/>
<path d="M117.772 185.033L115.333 186.296C115.135 186.398 114.892 186.31 114.797 186.124L113.861 184.301C113.765 184.116 113.834 183.864 114.032 183.761L116.826 182.315C117.024 182.213 117.268 182.302 117.363 182.488L119.841 187.316C119.94 187.508 119.882 187.745 119.669 187.856L119.315 188.039C119.102 188.148 118.877 188.059 118.778 187.866C118.669 187.652 118.744 187.433 118.949 187.326L117.768 185.021L117.772 185.033ZM117.414 184.323L116.843 183.211L114.759 184.29L115.329 185.403L117.41 184.323H117.414Z" fill="white"/>
<path d="M122.883 182.388L120.444 183.651C120.245 183.753 120.002 183.665 119.907 183.479L118.971 181.656C118.876 181.471 118.944 181.219 119.143 181.116L121.936 179.669C122.135 179.567 122.378 179.657 122.473 179.842L124.951 184.67C125.05 184.863 124.992 185.099 124.78 185.21L124.425 185.394C124.213 185.504 123.987 185.414 123.888 185.221C123.779 185.007 123.854 184.788 124.06 184.681L122.879 182.376L122.883 182.388ZM122.515 181.678L121.945 180.566L119.861 181.644L120.431 182.757L122.512 181.677L122.515 181.678Z" fill="white"/>
<path d="M127.983 179.743L125.544 181.006C125.346 181.108 125.103 181.02 125.008 180.834L124.072 179.011C123.976 178.826 124.045 178.574 124.243 178.47L127.037 177.025C127.235 176.922 127.479 177.012 127.574 177.198L130.052 182.025C130.15 182.218 130.092 182.454 129.88 182.565L129.526 182.748C129.313 182.858 129.088 182.768 128.989 182.576C128.88 182.362 128.955 182.143 129.16 182.035L127.97 179.74L127.983 179.743ZM127.615 179.033L127.045 177.922L124.962 179L125.532 180.113L127.613 179.033H127.615Z" fill="white"/>
<path d="M43.0322 244.494L43.9188 244.035L46.5785 249.218C46.6956 249.446 46.6627 249.626 46.4072 249.758C46.1517 249.891 45.9871 249.814 45.87 249.586L43.7136 245.385L43.6991 245.392L43.5413 246.746L43.5994 246.859C43.7126 247.08 43.7339 247.33 43.4639 247.47C43.2084 247.602 43.0032 247.447 42.8899 247.226L42.8318 247.112L41.6423 246.458L41.6278 246.465L43.7842 250.665C43.9014 250.893 43.8675 251.073 43.6129 251.206C43.3574 251.338 43.1929 251.261 43.0758 251.033L40.415 245.849L41.3016 245.39L42.8096 246.195L43.0322 244.474V244.494Z" fill="black"/>
<path d="M50.2854 247.304C50.4025 247.531 50.3686 247.712 50.1141 247.844C49.8595 247.977 49.694 247.9 49.5769 247.671L48.4077 245.392L46.0761 244.293L45.7034 243.566C45.5863 243.338 45.6192 243.159 45.8748 243.026C46.1303 242.894 46.2958 242.971 46.4129 243.199L46.6607 243.683L48.4009 244.504L48.7445 242.603L48.4968 242.12C48.3796 241.892 48.4135 241.713 48.6681 241.58C48.9226 241.448 49.0891 241.525 49.2052 241.753L49.5779 242.48L49.1172 245.024L50.2854 247.3V247.304Z" fill="black"/>
<path d="M58.713 236.841C58.5958 236.613 58.6297 236.434 58.8843 236.301C59.1398 236.168 59.3043 236.245 59.4214 236.473L62.0822 241.658L61.1462 242.143L57.1034 238.829L57.1005 238.822L57.0859 238.829L59.0953 242.744C59.2124 242.972 59.1785 243.152 58.923 243.285C58.6675 243.417 58.5029 243.34 58.3858 243.112L55.7251 237.928L56.661 237.444L60.7291 240.808L60.7223 240.812L60.7358 240.804L58.713 236.837V236.841Z" fill="black"/>
<path d="M62.4053 234.925C62.3636 234.704 62.354 234.493 62.5814 234.376C62.8147 234.254 62.9918 234.39 63.136 234.548L66.9785 238.66C67.1159 238.806 67.0192 239.09 66.8207 239.193C66.601 239.307 66.3929 239.181 66.2555 239.036L65.5548 238.318L64.0449 239.1L64.2142 240.093C64.252 240.29 64.2346 240.533 64.0139 240.647C63.8155 240.749 63.529 240.665 63.4903 240.467L62.4053 234.924V234.925ZM63.4535 236.053L63.439 236.061L63.8764 238.277L64.9895 237.701L63.4535 236.048V236.053Z" fill="black"/>
<path d="M68.5483 231.289L69.4339 230.83L72.0946 236.014C72.2117 236.241 72.1779 236.421 71.9223 236.553C71.6668 236.685 71.5023 236.609 71.3852 236.38L69.2287 232.179L69.2142 232.187L69.0564 233.54L69.1145 233.654C69.2277 233.874 69.2481 234.125 68.979 234.265C68.7235 234.397 68.5183 234.242 68.4051 234.021L68.347 233.907L67.1574 233.252L67.1429 233.26L69.2994 237.46C69.4165 237.688 69.3826 237.868 69.1271 238C68.8716 238.132 68.707 238.056 68.5899 237.827L65.9292 232.643L66.8158 232.184L68.3238 232.99L68.5483 231.269V231.289Z" fill="black"/>
<path d="M76.6605 233.195C76.8444 233.098 77.0661 233.11 77.1987 233.367C77.3303 233.624 77.2112 233.811 77.0264 233.907L73.8798 235.537L71.0361 229.997L74.1827 228.368C74.3666 228.271 74.5892 228.283 74.7209 228.54C74.8525 228.796 74.7335 228.983 74.5486 229.08L72.1095 230.343L72.9825 232.044L74.025 231.505C74.2089 231.409 74.4305 231.421 74.5621 231.678C74.6938 231.934 74.5747 232.122 74.3908 232.217L73.3484 232.757L74.2214 234.459L76.6605 233.165V233.195Z" fill="black"/>
<path d="M42.437 244.173L43.3236 243.714L45.9833 248.897C46.1004 249.125 46.0675 249.305 45.812 249.437C45.5565 249.57 45.3919 249.494 45.2748 249.265L43.1184 245.064L43.1039 245.071L42.9461 246.425L43.0042 246.538C43.1174 246.759 43.1387 247.009 42.8687 247.149C42.6131 247.281 42.4079 247.126 42.2947 246.905L42.2366 246.791L41.0471 246.137L41.0326 246.144L43.189 250.344C43.3061 250.572 43.2723 250.752 43.0177 250.885C42.7622 251.017 42.5977 250.94 42.4805 250.712L39.8198 245.528L40.7064 245.069L42.2144 245.874L42.437 244.163V244.173Z" fill="white"/>
<path d="M49.6902 246.983C49.8073 247.21 49.7734 247.391 49.5189 247.523C49.2643 247.656 49.0988 247.579 48.9817 247.35L47.8125 245.071L45.4809 243.972L45.1082 243.245C44.9911 243.017 45.024 242.839 45.2795 242.705C45.5351 242.573 45.7006 242.65 45.8177 242.878L46.0655 243.362L47.8057 244.183L48.1493 242.282L47.9015 241.799C47.7844 241.572 47.8183 241.392 48.0729 241.259C48.3274 241.127 48.4939 241.204 48.61 241.432L48.9827 242.159L48.522 244.704L49.6902 246.989V246.983Z" fill="white"/>
<path d="M58.1177 236.51C58.0006 236.283 58.0345 236.103 58.2891 235.971C58.5446 235.838 58.7091 235.914 58.8262 236.143L61.4869 241.328L60.551 241.813L56.5081 238.498L56.5052 238.491L56.4907 238.498L58.5001 242.414C58.6172 242.641 58.5833 242.821 58.3278 242.954C58.0723 243.087 57.9077 243.01 57.7906 242.781L55.1299 237.598L56.0658 237.113L60.1338 240.478L60.1271 240.482L60.1406 240.474L58.1177 236.507V236.51Z" fill="white"/>
<path d="M61.8091 234.604C61.7674 234.383 61.7578 234.172 61.9852 234.055C62.2185 233.934 62.3956 234.069 62.5398 234.227L66.3823 238.339C66.5198 238.485 66.423 238.769 66.2245 238.872C66.0048 238.986 65.7967 238.861 65.6593 238.715L64.9586 237.997L63.4487 238.779L63.618 239.772C63.6558 239.969 63.6384 240.212 63.4177 240.326C63.2193 240.428 62.9328 240.344 62.8941 240.146L61.8091 234.613V234.604ZM62.8573 235.732L62.8428 235.74L63.2802 237.956L64.3933 237.38L62.8573 235.727V235.732Z" fill="white"/>
<path d="M67.9531 230.958L68.8387 230.499L71.4994 235.683C71.6165 235.91 71.5826 236.09 71.3271 236.223C71.0716 236.355 70.9071 236.278 70.7899 236.049L68.6335 231.849L68.619 231.857L68.4612 233.209L68.5193 233.323C68.6325 233.544 68.6529 233.795 68.3838 233.935C68.1283 234.067 67.9231 233.911 67.8098 233.69L67.7518 233.577L66.5622 232.921L66.5477 232.929L68.7042 237.13C68.8213 237.357 68.7874 237.537 68.5319 237.669C68.2764 237.802 68.1118 237.725 67.9947 237.496L65.334 232.313L66.2206 231.854L67.7285 232.66L67.9531 230.939V230.958Z" fill="white"/>
<path d="M76.0653 232.874C76.2492 232.777 76.4708 232.789 76.6034 233.046C76.7351 233.303 76.616 233.49 76.4312 233.586L73.2846 235.216L70.4409 229.677L73.5875 228.047C73.7714 227.951 73.994 227.962 74.1257 228.219C74.2573 228.475 74.1382 228.662 73.9534 228.759L71.5143 230.022L72.3873 231.723L73.4297 231.184C73.6136 231.088 73.8353 231.1 73.9669 231.357C74.0985 231.613 73.9795 231.801 73.7956 231.896L72.7532 232.436L73.6262 234.138L76.0653 232.854V232.874Z" fill="white"/>
<path d="M37.2841 235.743L37.5707 235.563C37.6675 235.691 37.7681 235.77 37.8717 235.798C37.9763 235.826 38.0847 235.811 38.197 235.754C38.2938 235.704 38.3674 235.64 38.4177 235.56C38.4681 235.478 38.4981 235.389 38.5078 235.293C38.5174 235.194 38.5058 235.074 38.4748 234.933C38.4429 234.791 38.3945 234.655 38.3287 234.523C38.3219 234.509 38.3103 234.49 38.2958 234.462C38.2832 234.595 38.2377 234.719 38.1602 234.836C38.0828 234.954 37.9811 235.045 37.8553 235.109C37.6442 235.215 37.4264 235.229 37.2028 235.149C36.9792 235.069 36.8039 234.904 36.6781 234.651C36.5474 234.39 36.5193 234.143 36.5919 233.906C36.6655 233.67 36.8165 233.494 37.0469 233.378C37.2134 233.294 37.3877 233.262 37.5697 233.281C37.7527 233.302 37.9211 233.376 38.076 233.506C38.2299 233.636 38.3868 233.859 38.5446 234.174C38.7091 234.503 38.804 234.781 38.8301 235.012C38.8572 235.241 38.8253 235.442 38.7362 235.615C38.6472 235.788 38.5087 235.921 38.3209 236.016C38.1205 236.117 37.9298 236.145 37.7478 236.097C37.5639 236.048 37.4099 235.932 37.2841 235.737V235.743ZM37.9995 233.963C37.9095 233.781 37.7894 233.661 37.6404 233.605C37.4913 233.546 37.3499 233.553 37.2154 233.621C37.076 233.692 36.984 233.809 36.9375 233.976C36.8911 234.143 36.9143 234.317 37.0053 234.499C37.0876 234.663 37.2028 234.77 37.3519 234.823C37.5009 234.875 37.6481 234.866 37.7923 234.793C37.9376 234.72 38.0315 234.608 38.0741 234.458C38.1147 234.312 38.0905 234.147 37.9995 233.962V233.963Z" fill="white"/>
<path d="M39.2662 234.741L39.5537 234.561C39.6505 234.69 39.7512 234.769 39.8558 234.797C39.9594 234.823 40.0688 234.809 40.1811 234.751C40.2779 234.703 40.3505 234.638 40.4018 234.558C40.4521 234.477 40.4821 234.387 40.4918 234.29C40.5005 234.192 40.4899 234.072 40.4579 233.931C40.426 233.789 40.3776 233.653 40.3117 233.522C40.305 233.507 40.2934 233.488 40.2788 233.46C40.2663 233.593 40.2217 233.717 40.1443 233.835C40.0668 233.952 39.9652 234.043 39.8393 234.107C39.6273 234.213 39.4105 234.227 39.1859 234.146C38.9632 234.066 38.788 233.901 38.6612 233.649C38.5305 233.387 38.5014 233.14 38.576 232.904C38.6495 232.669 38.8006 232.493 39.031 232.376C39.1975 232.292 39.3717 232.259 39.5537 232.28C39.7367 232.3 39.9052 232.375 40.06 232.504C40.2149 232.635 40.3708 232.857 40.5286 233.172C40.6932 233.501 40.7881 233.779 40.8142 234.01C40.8403 234.239 40.8093 234.44 40.7203 234.613C40.6312 234.785 40.4928 234.919 40.305 235.015C40.1046 235.116 39.9148 235.142 39.7319 235.095C39.547 235.057 39.393 234.94 39.2662 234.745V234.741ZM39.9836 232.961C39.8926 232.78 39.7735 232.661 39.6244 232.604C39.4753 232.545 39.333 232.551 39.1984 232.62C39.059 232.69 38.9661 232.809 38.9206 232.975C38.8751 233.142 38.8974 233.315 38.9884 233.497C39.0707 233.663 39.1859 233.769 39.3349 233.821C39.484 233.875 39.6312 233.864 39.7745 233.792C39.9197 233.718 40.0136 233.607 40.0562 233.457C40.0978 233.301 40.0736 233.126 39.9836 232.951V232.961Z" fill="white"/>
<path d="M41.2506 233.74L41.5382 233.559C41.635 233.688 41.7357 233.767 41.8392 233.794C41.9438 233.822 42.0513 233.807 42.1645 233.75C42.2604 233.701 42.3339 233.637 42.3852 233.556C42.4356 233.474 42.4656 233.386 42.4753 233.289C42.484 233.19 42.4733 233.07 42.4414 232.93C42.4094 232.788 42.361 232.652 42.2952 232.52C42.2884 232.506 42.2768 232.486 42.2623 232.459C42.2497 232.591 42.2052 232.715 42.1277 232.832C42.0503 232.95 41.9486 233.042 41.8218 233.105C41.6108 233.212 41.3939 233.225 41.1693 233.145C40.9467 233.065 40.7714 232.9 40.6446 232.648C40.5139 232.386 40.4859 232.139 40.5594 231.903C40.633 231.666 40.784 231.49 41.0144 231.374C41.18 231.291 41.3552 231.258 41.5372 231.278C41.7202 231.298 41.8886 231.373 42.0435 231.503C42.1984 231.633 42.3543 231.856 42.5121 232.17C42.6766 232.499 42.7715 232.777 42.7976 233.008C42.8248 233.237 42.7928 233.438 42.7037 233.612C42.6147 233.784 42.4772 233.917 42.2884 234.012C42.088 234.113 41.8973 234.141 41.7144 234.093C41.5314 234.045 41.3775 233.957 41.2506 233.762V233.74ZM41.9661 231.96C41.876 231.778 41.756 231.659 41.6069 231.603C41.4578 231.544 41.3165 231.549 41.1809 231.619C41.0415 231.689 40.9496 231.806 40.9031 231.974C40.8566 232.141 40.8799 232.314 40.9709 232.496C41.0532 232.66 41.1684 232.767 41.3165 232.82C41.4665 232.872 41.6127 232.863 41.757 232.79C41.9022 232.717 41.9961 232.606 42.0377 232.455C42.0822 232.299 42.0571 232.134 41.9661 231.959V231.96Z" fill="white"/>
<path d="M43.2337 232.738L43.5213 232.558C43.6181 232.687 43.7188 232.766 43.8223 232.794C43.9259 232.82 44.0353 232.805 44.1476 232.748C44.2444 232.699 44.318 232.635 44.3683 232.555C44.4187 232.474 44.4487 232.384 44.4584 232.287C44.4681 232.19 44.4564 232.069 44.4245 231.928C44.3925 231.786 44.3441 231.65 44.2783 231.519C44.2706 231.504 44.2599 231.486 44.2454 231.457C44.2328 231.591 44.1873 231.714 44.1099 231.832C44.0324 231.95 43.9308 232.04 43.8049 232.104C43.5939 232.21 43.3761 232.225 43.1524 232.143C42.9288 232.063 42.7536 231.898 42.6277 231.646C42.497 231.384 42.468 231.138 42.5416 230.901C42.6151 230.666 42.7662 230.49 42.9966 230.374C43.1631 230.289 43.3373 230.256 43.5193 230.276C43.7023 230.297 43.8707 230.372 44.0256 230.501C44.1796 230.632 44.3364 230.854 44.4942 231.169C44.6588 231.498 44.7536 231.776 44.7798 232.007C44.8059 232.236 44.7749 232.438 44.6859 232.61C44.5968 232.783 44.4584 232.916 44.2696 233.012C44.0702 233.113 43.8795 233.139 43.6965 233.092C43.5145 233.044 43.3606 232.927 43.2337 232.742V232.738ZM43.9501 230.958C43.8601 230.776 43.7401 230.657 43.591 230.6C43.4419 230.541 43.2996 230.548 43.166 230.616C43.0266 230.687 42.9336 230.805 42.8881 230.971C42.8417 231.138 42.8649 231.312 42.9549 231.494C43.0372 231.659 43.1524 231.766 43.3015 231.817C43.4506 231.871 43.5977 231.861 43.742 231.788C43.8872 231.715 43.9811 231.603 44.0237 231.452C44.0653 231.287 44.0411 231.122 43.9501 230.947V230.958Z" fill="white"/>
</g>
<defs>
<linearGradient id="paint0_linear_38_163" x1="125.583" y1="22.841" x2="174.127" y2="74.0456" gradientUnits="userSpaceOnUse">
<stop stop-color="#E8C3B9"/>
<stop offset="1" stop-color="#D69E90"/>
</linearGradient>
<linearGradient id="paint1_linear_38_163" x1="38.5421" y1="254.521" x2="115.377" y2="132.514" gradientUnits="userSpaceOnUse">
<stop stop-color="#00367F"/>
<stop offset="0.2211" stop-color="#0052A9"/>
<stop offset="0.4" stop-color="#0091E9"/>
<stop offset="0.7105" stop-color="#004EA3"/>
<stop offset="1" stop-color="#00367F"/>
</linearGradient>
<linearGradient id="paint2_linear_38_163" x1="37.1176" y1="200.38" x2="35.4584" y2="214.793" gradientUnits="userSpaceOnUse">
<stop stop-color="#FFD42A"/>
<stop offset="0.5" stop-color="#FFE78C"/>
<stop offset="1" stop-color="#FFD635"/>
</linearGradient>
<radialGradient id="paint3_radial_38_163" cx="0" cy="0" r="1" gradientUnits="userSpaceOnUse" gradientTransform="translate(105.499 142.858) scale(28.8033 18.8061)">
<stop offset="0.4367"/>
<stop offset="0.8105" stop-opacity="0"/>
</radialGradient>
<clipPath id="clip0_38_163">
<rect width="270" height="260" fill="white"/>
</clipPath>
</defs>
</svg>
